0
SECTION
2
HEADER
9
$INSUNITS
70
4
9
$ACADVER
1
AC1014
9
$HANDSEED
5
FFFF
0
ENDSEC
0
SECTION
2
TABLES
0
TABLE
2
VPORT
5
8
100
AcDbSymbolTable
0
ENDTAB
0
TABLE
2
LTYPE
5
5
100
AcDbSymbolTable
0
LTYPE
5
14
100
AcDbSymbolTableRecord
100
AcDbLinetypeTableRecord
2
BYBLOCK
70
0
0
LTYPE
5
15
100
AcDbSymbolTableRecord
100
AcDbLinetypeTableRecord
2
BYLAYER
70
0
0
LTYPE
5
16
100
AcDbSymbolTableRecord
100
AcDbLinetypeTableRecord
2
DASHED
70
0
3
Dashed __ __ __ __ __ __ __ __ __ __ __ __ __ _
72
65
73
2
40
0.75
49
0.5
74
0
49
-0.25
74
0
0
ENDTAB
0
TABLE
2
LAYER
5
2
100
AcDbSymbolTable
70
2
0
LAYER
5
50
100
AcDbSymbolTableRecord
100
AcDbLayerTableRecord
2
0
70
0
62
7
6
CONTINUOUS
0
ENDTAB
0
TABLE
2
STYLE
5
3
100
AcDbSymbolTable
70
1
0
STYLE
5
11
100
AcDbSymbolTableRecord
100
AcDbTextStyleTableRecord
2
STANDARD
70
0
0
ENDTAB
0
TABLE
2
VIEW
5
6
100
AcDbSymbolTable
70
0
0
ENDTAB
0
TABLE
2
UCS
5
7
100
AcDbSymbolTable
70
0
0
ENDTAB
0
TABLE
2
APPID
5
9
100
AcDbSymbolTable
70
2
0
APPID
5
12
100
AcDbSymbolTableRecord
100
AcDbRegAppTableRecord
2
ACAD
70
0
0
ENDTAB
0
TABLE
2
DIMSTYLE
5
A
100
AcDbSymbolTable
70
1
0
ENDTAB
0
TABLE
2
BLOCK_RECORD
5
1
100
AcDbSymbolTable
70
1
0
BLOCK_RECORD
5
1F
100
AcDbSymbolTableRecord
100
AcDbBlockTableRecord
2
*MODEL_SPACE
0
BLOCK_RECORD
5
1B
100
AcDbSymbolTableRecord
100
AcDbBlockTableRecord
2
*PAPER_SPACE
0
ENDTAB
0
ENDSEC
0
SECTION
2
BLOCKS
0
BLOCK
5
20
100
AcDbEntity
100
AcDbBlockBegin
2
*MODEL_SPACE
0
ENDBLK
5
21
100
AcDbEntity
100
AcDbBlockEnd
0
BLOCK
5
1C
100
AcDbEntity
100
AcDbBlockBegin
2
*PAPER_SPACE
0
ENDBLK
5
1D
100
AcDbEntity
100
AcDbBlockEnd
0
ENDSEC
0
SECTION
2
ENTITIES
0
LWPOLYLINE
5
100
100
AcDbEntity
8
0
100
AcDbPolyline
90
56
70
1
43
0.0
10
58.968749999999979
20
59.656250000000014
10
131.53125
20
59.656250000000021
42
-0.41421356237309764
10
132.53125
20
58.656250000000014
10
132.53125
20
57.656250000000007
42
0.99999999999999989
10
138.93125000000001
20
57.656250000000007
10
138.93125000000003
20
58.656250000000014
42
-0.41421356237309764
10
139.93125000000003
20
59.656250000000014
10
171.45624999999995
20
59.656250000000014
42
-0.4142135623730992
10
173.95624999999998
20
57.156250000000014
10
173.95625000000001
20
-57.156250000000014
42
-0.41421356237310125
10
171.45624999999998
20
-59.656250000000014
10
158.98125000000002
20
-59.656250000000014
42
-0.41421356237309503
10
157.98125000000002
20
-58.656250000000014
10
157.98125000000002
20
-57.656250000000028
42
0.99999999999999989
10
151.58125000000001
20
-57.656250000000028
10
151.58125000000001
20
-58.656250000000014
42
-0.41421356237309503
10
150.58125000000001
20
-59.656250000000014
10
91.115624999999994
20
-59.656250000000014
42
-0.41421356237309503
10
90.115624999999994
20
-58.656250000000014
10
90.115624999999994
20
-57.656250000000014
42
0.99999999999999989
10
83.715624999999989
20
-57.656250000000014
10
83.715624999999989
20
-58.656250000000014
42
-0.41421356237309503
10
82.715625000000003
20
-59.656250000000014
10
-63.070312500000014
20
-59.656250000000014
42
-0.41421356237310281
10
-64.0703125
20
-58.656250000000014
10
-64.0703125
20
-57.656250000000028
42
0.99999999999999989
10
-70.470312500000006
20
-57.656250000000028
10
-70.470312499999991
20
-58.656250000000014
42
-0.41421356237310281
10
-71.470312499999977
20
-59.656250000000014
10
-144.62812499999998
20
-59.656250000000036
42
-0.41421356237309764
10
-145.62812500000001
20
-58.656250000000014
10
-145.62812500000001
20
-57.656250000000028
42
0.99999999999999989
10
-152.02812499999999
20
-57.656250000000028
10
-152.02812500000005
20
-58.656250000000014
42
-0.41421356237309764
10
-153.02812500000002
20
-59.656250000000014
10
-171.45624999999995
20
-59.656249999999993
42
-0.41421356237310125
10
-173.95624999999995
20
-57.156250000000014
10
-173.95625000000001
20
57.156250000000014
42
-0.41421356237310125
10
-171.45624999999998
20
59.656250000000014
10
-120.88124999999999
20
59.656250000000014
42
-0.41421356237309503
10
-119.88124999999999
20
58.656250000000014
10
-119.88124999999999
20
57.656250000000007
42
0.99999999999999989
10
-113.48124999999999
20
57.656250000000007
10
-113.48124999999999
20
58.656250000000014
42
-0.41421356237309503
10
-112.48125
20
59.656250000000014
10
-35.15625
20
59.656250000000014
42
-0.41421356237309503
10
-34.15625
20
58.656250000000014
10
-34.15625
20
57.656250000000007
42
0.99999999999999989
10
-27.756250000000001
20
57.656250000000007
10
-27.756249999999998
20
58.656250000000014
42
-0.41421356237309503
10
-26.756250000000001
20
59.656250000000014
10
50.568750000000016
20
59.65625
42
-0.41421356237310281
10
51.568749999999994
20
58.656250000000014
10
51.568749999999994
20
57.656250000000007
42
0.99999999999999989
10
57.96875
20
57.656250000000007
10
57.968749999999993
20
58.656250000000014
42
-0.41421356237310281
0
CIRCLE
5
101
100
AcDbEntity
8
0
100
AcDbCircle
10
-150.01875000000001
20
-42.006250000000016
30
0
40
2.5
210
0
220
-0
230
1
0
CIRCLE
5
102
100
AcDbEntity
8
0
100
AcDbCircle
10
-54.768749999999997
20
-38.956249999999997
30
0
40
2.5
210
0
220
-0
230
1
0
CIRCLE
5
103
100
AcDbEntity
8
0
100
AcDbCircle
10
40.481250000000003
20
-38.956249999999997
30
0
40
2.5
210
0
220
-0
230
1
0
CIRCLE
5
104
100
AcDbEntity
8
0
100
AcDbCircle
10
154.78125
20
-42.006250000000009
30
0
40
2.5
210
0
220
-0
230
1
0
ENDSEC
0
SECTION
2
OBJECTS
0
DICTIONARY
5
C
100
AcDbDictionary
3
ACAD_GROUP
350
D
3
ACAD_MLINESTYLE
350
17
0
DICTIONARY
5
D
100
AcDbDictionary
0
DICTIONARY
5
1A
330
C
100
AcDbDictionary
0
DICTIONARY
5
17
100
AcDbDictionary
0
ENDSEC
0
EOF
