%TF.GenerationSoftware,KiCad,Pcbnew,8.0.1*%
%TF.CreationDate,2025-12-31T00:35:04+09:00*%
%TF.ProjectId,rubrejaneTKL_RP2040_Piano,72756272-656a-4616-9e65-544b4c5f5250,rev?*%
%TF.SameCoordinates,Original*%
%TF.FileFunction,Paste,Bot*%
%TF.FilePolarity,Positive*%
%FSLAX46Y46*%
G04 Gerber Fmt 4.6, Leading zero omitted, Abs format (unit mm)*
G04 Created by KiCad (PCBNEW 8.0.1) date 2025-12-31 00:35:04*
%MOMM*%
%LPD*%
G01*
G04 APERTURE LIST*
G04 Aperture macros list*
%AMRoundRect*
0 Rectangle with rounded corners*
0 $1 Rounding radius*
0 $2 $3 $4 $5 $6 $7 $8 $9 X,Y pos of 4 corners*
0 Add a 4 corners polygon primitive as box body*
4,1,4,$2,$3,$4,$5,$6,$7,$8,$9,$2,$3,0*
0 Add four circle primitives for the rounded corners*
1,1,$1+$1,$2,$3*
1,1,$1+$1,$4,$5*
1,1,$1+$1,$6,$7*
1,1,$1+$1,$8,$9*
0 Add four rect primitives between the rounded corners*
20,1,$1+$1,$2,$3,$4,$5,0*
20,1,$1+$1,$4,$5,$6,$7,0*
20,1,$1+$1,$6,$7,$8,$9,0*
20,1,$1+$1,$8,$9,$2,$3,0*%
G04 Aperture macros list end*
%ADD10RoundRect,0.140000X0.170000X-0.140000X0.170000X0.140000X-0.170000X0.140000X-0.170000X-0.140000X0*%
%ADD11RoundRect,0.225000X0.375000X-0.225000X0.375000X0.225000X-0.375000X0.225000X-0.375000X-0.225000X0*%
%ADD12RoundRect,0.140000X0.140000X0.170000X-0.140000X0.170000X-0.140000X-0.170000X0.140000X-0.170000X0*%
%ADD13RoundRect,0.140000X-0.021213X0.219203X-0.219203X0.021213X0.021213X-0.219203X0.219203X-0.021213X0*%
%ADD14RoundRect,0.140000X-0.170000X0.140000X-0.170000X-0.140000X0.170000X-0.140000X0.170000X0.140000X0*%
%ADD15R,1.000000X0.900000*%
%ADD16RoundRect,0.140000X0.021213X-0.219203X0.219203X-0.021213X-0.021213X0.219203X-0.219203X0.021213X0*%
%ADD17RoundRect,0.225000X0.225000X0.250000X-0.225000X0.250000X-0.225000X-0.250000X0.225000X-0.250000X0*%
%ADD18RoundRect,0.150000X0.150000X-0.587500X0.150000X0.587500X-0.150000X0.587500X-0.150000X-0.587500X0*%
%ADD19RoundRect,0.140000X-0.219203X-0.021213X-0.021213X-0.219203X0.219203X0.021213X0.021213X0.219203X0*%
%ADD20RoundRect,0.150000X-0.150000X0.512500X-0.150000X-0.512500X0.150000X-0.512500X0.150000X0.512500X0*%
%ADD21RoundRect,0.150000X0.625000X-0.150000X0.625000X0.150000X-0.625000X0.150000X-0.625000X-0.150000X0*%
%ADD22RoundRect,0.250000X0.650000X-0.350000X0.650000X0.350000X-0.650000X0.350000X-0.650000X-0.350000X0*%
%ADD23RoundRect,0.150000X-0.150000X0.650000X-0.150000X-0.650000X0.150000X-0.650000X0.150000X0.650000X0*%
%ADD24R,1.000000X0.750000*%
%ADD25RoundRect,0.250000X-0.413257X0.000000X0.000000X-0.413257X0.413257X0.000000X0.000000X0.413257X0*%
%ADD26RoundRect,0.050000X-0.309359X0.238649X0.238649X-0.309359X0.309359X-0.238649X-0.238649X0.309359X0*%
%ADD27RoundRect,0.050000X-0.309359X-0.238649X-0.238649X-0.309359X0.309359X0.238649X0.238649X0.309359X0*%
G04 APERTURE END LIST*
D10*
%TO.C,C16*%
X146442500Y-133280000D03*
X146442500Y-132320000D03*
%TD*%
D11*
%TO.C,D75*%
X247832500Y-124712500D03*
X247832500Y-121412500D03*
%TD*%
%TO.C,D32*%
X319270000Y-67562500D03*
X319270000Y-64262500D03*
%TD*%
D12*
%TO.C,C5*%
X146525000Y-140250000D03*
X145565000Y-140250000D03*
%TD*%
D11*
%TO.C,D69*%
X133532500Y-124712500D03*
X133532500Y-121412500D03*
%TD*%
D13*
%TO.C,C10*%
X133134411Y-141185589D03*
X132455589Y-141864411D03*
%TD*%
D11*
%TO.C,D70*%
X152582500Y-124712500D03*
X152582500Y-121412500D03*
%TD*%
%TO.C,D16*%
X362132500Y-43750000D03*
X362132500Y-40450000D03*
%TD*%
%TO.C,D38*%
X100195000Y-86612500D03*
X100195000Y-83312500D03*
%TD*%
%TO.C,D67*%
X95432500Y-124712500D03*
X95432500Y-121412500D03*
%TD*%
%TO.C,D76*%
X266882500Y-124712500D03*
X266882500Y-121412500D03*
%TD*%
D14*
%TO.C,R5*%
X53220000Y-109120000D03*
X53220000Y-110080000D03*
%TD*%
D11*
%TO.C,D21*%
X109720000Y-67562500D03*
X109720000Y-64262500D03*
%TD*%
%TO.C,D89*%
X362132500Y-143762500D03*
X362132500Y-140462500D03*
%TD*%
%TO.C,D85*%
X269263750Y-143762500D03*
X269263750Y-140462500D03*
%TD*%
%TO.C,D37*%
X81145000Y-86612500D03*
X81145000Y-83312500D03*
%TD*%
%TO.C,D35*%
X381182500Y-67562500D03*
X381182500Y-64262500D03*
%TD*%
%TO.C,D53*%
X59713750Y-105662500D03*
X59713750Y-102362500D03*
%TD*%
%TO.C,D10*%
X238307500Y-43750000D03*
X238307500Y-40450000D03*
%TD*%
D12*
%TO.C,R8*%
X353520000Y-42765000D03*
X352560000Y-42765000D03*
%TD*%
D11*
%TO.C,D39*%
X119245000Y-86612500D03*
X119245000Y-83312500D03*
%TD*%
%TO.C,D59*%
X181157500Y-105662500D03*
X181157500Y-102362500D03*
%TD*%
%TO.C,D12*%
X276407500Y-43750000D03*
X276407500Y-40450000D03*
%TD*%
%TO.C,D84*%
X245451250Y-143762500D03*
X245451250Y-140462500D03*
%TD*%
%TO.C,D2*%
X76382500Y-43750000D03*
X76382500Y-40450000D03*
%TD*%
D10*
%TO.C,R4*%
X120370000Y-142030000D03*
X120370000Y-141070000D03*
%TD*%
D11*
%TO.C,D47*%
X271645000Y-86612500D03*
X271645000Y-83312500D03*
%TD*%
%TO.C,D9*%
X214495000Y-43750000D03*
X214495000Y-40450000D03*
%TD*%
D10*
%TO.C,C2*%
X139820000Y-145355000D03*
X139820000Y-144395000D03*
%TD*%
D11*
%TO.C,D64*%
X276407500Y-105662500D03*
X276407500Y-102362500D03*
%TD*%
D15*
%TO.C,Y1*%
X149970000Y-133075000D03*
X147820000Y-133075000D03*
X147820000Y-131525000D03*
X149970000Y-131525000D03*
%TD*%
D11*
%TO.C,D4*%
X114482500Y-43750000D03*
X114482500Y-40450000D03*
%TD*%
%TO.C,D44*%
X214495000Y-86612500D03*
X214495000Y-83312500D03*
%TD*%
%TO.C,D86*%
X293076250Y-143762500D03*
X293076250Y-140462500D03*
%TD*%
D14*
%TO.C,R6*%
X145412500Y-132320000D03*
X145412500Y-133280000D03*
%TD*%
D10*
%TO.C,R3*%
X121420000Y-142030000D03*
X121420000Y-141070000D03*
%TD*%
D13*
%TO.C,C12*%
X137309411Y-143360589D03*
X136630589Y-144039411D03*
%TD*%
D11*
%TO.C,D90*%
X381182500Y-143762500D03*
X381182500Y-140462500D03*
%TD*%
D16*
%TO.C,C1*%
X137980589Y-145389411D03*
X138659411Y-144710589D03*
%TD*%
D11*
%TO.C,D3*%
X95432500Y-43750000D03*
X95432500Y-40450000D03*
%TD*%
%TO.C,D6*%
X157345000Y-43750000D03*
X157345000Y-40450000D03*
%TD*%
%TO.C,D19*%
X71620000Y-67562500D03*
X71620000Y-64262500D03*
%TD*%
%TO.C,D48*%
X290695000Y-86612500D03*
X290695000Y-83312500D03*
%TD*%
%TO.C,D83*%
X173995000Y-145100000D03*
X173995000Y-141800000D03*
%TD*%
%TO.C,D28*%
X243070000Y-67562500D03*
X243070000Y-64262500D03*
%TD*%
%TO.C,D20*%
X90670000Y-67562500D03*
X90670000Y-64262500D03*
%TD*%
D14*
%TO.C,C15*%
X151370000Y-132320000D03*
X151370000Y-133280000D03*
%TD*%
D13*
%TO.C,C6*%
X144459411Y-133960589D03*
X143780589Y-134639411D03*
%TD*%
D11*
%TO.C,D43*%
X195445000Y-86612500D03*
X195445000Y-83312500D03*
%TD*%
D17*
%TO.C,R1*%
X131045000Y-145250000D03*
X129495000Y-145250000D03*
%TD*%
D11*
%TO.C,D26*%
X204970000Y-67562500D03*
X204970000Y-64262500D03*
%TD*%
%TO.C,D57*%
X143057500Y-105662500D03*
X143057500Y-102362500D03*
%TD*%
%TO.C,D60*%
X200207500Y-105662500D03*
X200207500Y-102362500D03*
%TD*%
%TO.C,D51*%
X362132500Y-86612500D03*
X362132500Y-83312500D03*
%TD*%
D18*
%TO.C,U1*%
X71820000Y-50887500D03*
X69920000Y-50887500D03*
X70870000Y-49012499D03*
%TD*%
D11*
%TO.C,D54*%
X85907500Y-105662500D03*
X85907500Y-102362500D03*
%TD*%
%TO.C,D11*%
X257357500Y-43750000D03*
X257357500Y-40450000D03*
%TD*%
%TO.C,D30*%
X281170000Y-67562500D03*
X281170000Y-64262500D03*
%TD*%
%TO.C,D79*%
X362132500Y-124712500D03*
X362132500Y-121412500D03*
%TD*%
%TO.C,D46*%
X252595000Y-86612500D03*
X252595000Y-83312500D03*
%TD*%
%TO.C,D27*%
X224020000Y-67562500D03*
X224020000Y-64262500D03*
%TD*%
%TO.C,D87*%
X316888750Y-143762500D03*
X316888750Y-140462500D03*
%TD*%
%TO.C,D66*%
X64476250Y-124712500D03*
X64476250Y-121412500D03*
%TD*%
%TO.C,D41*%
X157345000Y-86612500D03*
X157345000Y-83312500D03*
%TD*%
%TO.C,D74*%
X228782500Y-124712500D03*
X228782500Y-121412500D03*
%TD*%
%TO.C,D52*%
X381182500Y-86612500D03*
X381182500Y-83312500D03*
%TD*%
D10*
%TO.C,C8*%
X122470000Y-142030000D03*
X122470000Y-141070000D03*
%TD*%
D11*
%TO.C,D65*%
X307363750Y-105662500D03*
X307363750Y-102362500D03*
%TD*%
D19*
%TO.C,C17*%
X133730589Y-135985589D03*
X134409411Y-136664411D03*
%TD*%
D11*
%TO.C,D24*%
X166870000Y-67562500D03*
X166870000Y-64262500D03*
%TD*%
%TO.C,D88*%
X343082500Y-143762500D03*
X343082500Y-140462500D03*
%TD*%
%TO.C,D13*%
X295457500Y-43750000D03*
X295457500Y-40450000D03*
%TD*%
%TO.C,D45*%
X233545000Y-86612500D03*
X233545000Y-83312500D03*
%TD*%
%TO.C,D58*%
X162107500Y-105662500D03*
X162107500Y-102362500D03*
%TD*%
%TO.C,D77*%
X293076250Y-124712500D03*
X293076250Y-121412500D03*
%TD*%
%TO.C,D81*%
X78763750Y-143762500D03*
X78763750Y-140462500D03*
%TD*%
%TO.C,D33*%
X343082500Y-67562500D03*
X343082500Y-64262500D03*
%TD*%
D13*
%TO.C,C9*%
X137984411Y-144035589D03*
X137305589Y-144714411D03*
%TD*%
D14*
%TO.C,C7*%
X136745000Y-132220000D03*
X136745000Y-133180000D03*
%TD*%
D11*
%TO.C,D80*%
X54951250Y-143762500D03*
X54951250Y-140462500D03*
%TD*%
%TO.C,D61*%
X219257500Y-105662500D03*
X219257500Y-102362500D03*
%TD*%
%TO.C,D34*%
X362132500Y-67562500D03*
X362132500Y-64262500D03*
%TD*%
D20*
%TO.C,U4*%
X73625001Y-48712500D03*
X74575000Y-48712500D03*
X75524999Y-48712500D03*
X75524999Y-50987500D03*
X74575000Y-50987500D03*
X73625001Y-50987500D03*
%TD*%
D11*
%TO.C,D25*%
X185920000Y-67562500D03*
X185920000Y-64262500D03*
%TD*%
%TO.C,D82*%
X102576250Y-143762500D03*
X102576250Y-140462500D03*
%TD*%
%TO.C,D42*%
X176395000Y-86612500D03*
X176395000Y-83312500D03*
%TD*%
%TO.C,D5*%
X133532500Y-43750000D03*
X133532500Y-40450000D03*
%TD*%
%TO.C,D15*%
X343082500Y-43750000D03*
X343082500Y-40450000D03*
%TD*%
D21*
%TO.C,J1*%
X328231250Y-51506250D03*
X328231250Y-50506250D03*
X328231250Y-49506250D03*
X328231250Y-48506250D03*
D22*
X324356250Y-52806250D03*
X324356250Y-47206250D03*
%TD*%
D11*
%TO.C,D72*%
X190682500Y-124712500D03*
X190682500Y-121412500D03*
%TD*%
D14*
%TO.C,C14*%
X68325000Y-50895000D03*
X68325000Y-51855000D03*
%TD*%
D11*
%TO.C,D7*%
X176395000Y-43750000D03*
X176395000Y-40450000D03*
%TD*%
%TO.C,D71*%
X171632500Y-124712500D03*
X171632500Y-121412500D03*
%TD*%
D16*
%TO.C,C11*%
X144455589Y-135314411D03*
X145134411Y-134635589D03*
%TD*%
D11*
%TO.C,D29*%
X262120000Y-67562500D03*
X262120000Y-64262500D03*
%TD*%
%TO.C,D8*%
X195445000Y-43750000D03*
X195445000Y-40450000D03*
%TD*%
%TO.C,D17*%
X381182500Y-43750000D03*
X381182500Y-40450000D03*
%TD*%
%TO.C,D14*%
X319270000Y-43750000D03*
X319270000Y-40450000D03*
%TD*%
%TO.C,D56*%
X124007500Y-105662500D03*
X124007500Y-102362500D03*
%TD*%
%TO.C,D31*%
X300220000Y-67562500D03*
X300220000Y-64262500D03*
%TD*%
%TO.C,D49*%
X314507500Y-86612500D03*
X314507500Y-83312500D03*
%TD*%
D17*
%TO.C,R2*%
X134045000Y-145250000D03*
X132495000Y-145250000D03*
%TD*%
D11*
%TO.C,D78*%
X319270000Y-124712500D03*
X319270000Y-121412500D03*
%TD*%
%TO.C,D18*%
X52570000Y-67562500D03*
X52570000Y-64262500D03*
%TD*%
%TO.C,D50*%
X343082500Y-86612500D03*
X343082500Y-83312500D03*
%TD*%
%TO.C,D36*%
X57332500Y-86612500D03*
X57332500Y-83312500D03*
%TD*%
%TO.C,D23*%
X147820000Y-67562500D03*
X147820000Y-64262500D03*
%TD*%
%TO.C,D22*%
X128770000Y-67562500D03*
X128770000Y-64262500D03*
%TD*%
D23*
%TO.C,U2*%
X124265000Y-134275000D03*
X125535000Y-134275000D03*
X126805000Y-134275000D03*
X128075000Y-134275000D03*
X128075000Y-141475000D03*
X126805000Y-141475000D03*
X125535000Y-141475000D03*
X124265000Y-141475000D03*
%TD*%
D11*
%TO.C,D55*%
X104957500Y-105662500D03*
X104957500Y-102362500D03*
%TD*%
D24*
%TO.C,BOOTSEL1*%
X118693750Y-135617501D03*
X112693750Y-135617501D03*
X118693750Y-139367501D03*
X112693750Y-139367501D03*
%TD*%
D25*
%TO.C,U3*%
X139791878Y-137123439D03*
X138890317Y-138025000D03*
X140693439Y-138025000D03*
X139791878Y-138926561D03*
D26*
X135522721Y-137432798D03*
X135805564Y-137149955D03*
X136088406Y-136867113D03*
X136371249Y-136584270D03*
X136654092Y-136301427D03*
X136936934Y-136018585D03*
X137219777Y-135735742D03*
X137502620Y-135452899D03*
X137785463Y-135170056D03*
X138068305Y-134887214D03*
X138351148Y-134604371D03*
X138633991Y-134321528D03*
X138916833Y-134038686D03*
X139199676Y-133755843D03*
D27*
X140384080Y-133755843D03*
X140666923Y-134038686D03*
X140949765Y-134321528D03*
X141232608Y-134604371D03*
X141515451Y-134887214D03*
X141798293Y-135170056D03*
X142081136Y-135452899D03*
X142363979Y-135735742D03*
X142646822Y-136018585D03*
X142929664Y-136301427D03*
X143212507Y-136584270D03*
X143495350Y-136867113D03*
X143778192Y-137149955D03*
X144061035Y-137432798D03*
D26*
X144061035Y-138617202D03*
X143778192Y-138900045D03*
X143495350Y-139182887D03*
X143212507Y-139465730D03*
X142929664Y-139748573D03*
X142646822Y-140031415D03*
X142363979Y-140314258D03*
X142081136Y-140597101D03*
X141798293Y-140879944D03*
X141515451Y-141162786D03*
X141232608Y-141445629D03*
X140949765Y-141728472D03*
X140666923Y-142011314D03*
X140384080Y-142294157D03*
D27*
X139199676Y-142294157D03*
X138916833Y-142011314D03*
X138633991Y-141728472D03*
X138351148Y-141445629D03*
X138068305Y-141162786D03*
X137785463Y-140879944D03*
X137502620Y-140597101D03*
X137219777Y-140314258D03*
X136936934Y-140031415D03*
X136654092Y-139748573D03*
X136371249Y-139465730D03*
X136088406Y-139182887D03*
X135805564Y-138900045D03*
X135522721Y-138617202D03*
%TD*%
D11*
%TO.C,D1*%
X52570000Y-43750000D03*
X52570000Y-40450000D03*
%TD*%
%TO.C,D62*%
X238307500Y-105662500D03*
X238307500Y-102362500D03*
%TD*%
%TO.C,D73*%
X209732500Y-124712500D03*
X209732500Y-121412500D03*
%TD*%
D16*
%TO.C,C3*%
X133799093Y-143207915D03*
X134477915Y-142529093D03*
%TD*%
D11*
%TO.C,D68*%
X114482500Y-124712500D03*
X114482500Y-121412500D03*
%TD*%
D12*
%TO.C,C13*%
X70855000Y-47425000D03*
X69895000Y-47425000D03*
%TD*%
D16*
%TO.C,C4*%
X133127342Y-142536164D03*
X133806164Y-141857342D03*
%TD*%
D11*
%TO.C,D40*%
X138295000Y-86612500D03*
X138295000Y-83312500D03*
%TD*%
%TO.C,D63*%
X257357500Y-105662500D03*
X257357500Y-102362500D03*
%TD*%
M02*
