%TF.GenerationSoftware,KiCad,Pcbnew,8.0.1*%
%TF.CreationDate,2025-12-31T00:35:04+09:00*%
%TF.ProjectId,rubrejaneTKL_RP2040_Piano,72756272-656a-4616-9e65-544b4c5f5250,rev?*%
%TF.SameCoordinates,Original*%
%TF.FileFunction,Soldermask,Top*%
%TF.FilePolarity,Negative*%
%FSLAX46Y46*%
G04 Gerber Fmt 4.6, Leading zero omitted, Abs format (unit mm)*
G04 Created by KiCad (PCBNEW 8.0.1) date 2025-12-31 00:35:04*
%MOMM*%
%LPD*%
G01*
G04 APERTURE LIST*
%ADD10C,1.700000*%
%ADD11C,4.000000*%
%ADD12C,2.500000*%
%ADD13C,5.000000*%
%ADD14C,1.690600*%
%ADD15R,1.690600X1.690600*%
%ADD16C,3.048000*%
%ADD17C,3.987800*%
G04 APERTURE END LIST*
D10*
%TO.C,MX22*%
X118745000Y-61912500D03*
D11*
X123825000Y-61912500D03*
D10*
X128905000Y-61912500D03*
D12*
X120015000Y-59372500D03*
X126365000Y-56832500D03*
%TD*%
D10*
%TO.C,MX83*%
X163988750Y-138112500D03*
D11*
X169068750Y-138112500D03*
D10*
X174148750Y-138112500D03*
X175895000Y-138112500D03*
D11*
X180975000Y-138112500D03*
D10*
X186055000Y-138112500D03*
D12*
X165258750Y-135572500D03*
X177165000Y-135572500D03*
X171608750Y-133032500D03*
X183515000Y-133032500D03*
%TD*%
D10*
%TO.C,MX70*%
X142557500Y-119062500D03*
D11*
X147637500Y-119062500D03*
D10*
X152717500Y-119062500D03*
D12*
X143827500Y-116522500D03*
X150177500Y-113982500D03*
%TD*%
D10*
%TO.C,MX8*%
X185420000Y-38100000D03*
D11*
X190500000Y-38100000D03*
D10*
X195580000Y-38100000D03*
D12*
X186690000Y-35560000D03*
X193040000Y-33020000D03*
%TD*%
D13*
%TO.C,REF\u002A\u002A*%
X157162500Y-127062500D03*
%TD*%
D14*
%TO.C,D94*%
X355917500Y-43180000D03*
D15*
X358457500Y-43180000D03*
%TD*%
D10*
%TO.C,MX48*%
X280670000Y-80962500D03*
D11*
X285750000Y-80962500D03*
D10*
X290830000Y-80962500D03*
D12*
X281940000Y-78422500D03*
X288290000Y-75882500D03*
%TD*%
D10*
%TO.C,MX76*%
X256857500Y-119062500D03*
D11*
X261937500Y-119062500D03*
D10*
X267017500Y-119062500D03*
D12*
X258127500Y-116522500D03*
X264477500Y-113982500D03*
%TD*%
D10*
%TO.C,MX82*%
X92551250Y-138112500D03*
X94932500Y-138112500D03*
D11*
X97631250Y-138112500D03*
X100012500Y-138112500D03*
D10*
X102711250Y-138112500D03*
X105092500Y-138112500D03*
D12*
X93821250Y-135572500D03*
X96202500Y-135572500D03*
X100171250Y-133032500D03*
X102552500Y-133032500D03*
%TD*%
D10*
%TO.C,MX13*%
X285432500Y-38100000D03*
D11*
X290512500Y-38100000D03*
D10*
X295592500Y-38100000D03*
D12*
X286702500Y-35560000D03*
X293052500Y-33020000D03*
%TD*%
D10*
%TO.C,MX36*%
X47307500Y-80962500D03*
D11*
X52387500Y-80962500D03*
D10*
X57467500Y-80962500D03*
D12*
X48577500Y-78422500D03*
X54927500Y-75882500D03*
%TD*%
D10*
%TO.C,MX57*%
X133032500Y-100012500D03*
D11*
X138112500Y-100012500D03*
D10*
X143192500Y-100012500D03*
D12*
X134302500Y-97472500D03*
X140652500Y-94932500D03*
%TD*%
D10*
%TO.C,MX86*%
X280670000Y-138112500D03*
X283051250Y-138112500D03*
D11*
X285750000Y-138112500D03*
X288131250Y-138112500D03*
D10*
X290830000Y-138112500D03*
X293211250Y-138112500D03*
D12*
X281940000Y-135572500D03*
X284321250Y-135572500D03*
X288290000Y-133032500D03*
X290671250Y-133032500D03*
%TD*%
D10*
%TO.C,MX74*%
X218757500Y-119062500D03*
D11*
X223837500Y-119062500D03*
D10*
X228917500Y-119062500D03*
D12*
X220027500Y-116522500D03*
X226377500Y-113982500D03*
%TD*%
D10*
%TO.C,MX75*%
X237807500Y-119062500D03*
D11*
X242887500Y-119062500D03*
D10*
X247967500Y-119062500D03*
D12*
X239077500Y-116522500D03*
X245427500Y-113982500D03*
%TD*%
D10*
%TO.C,MX1*%
X42545000Y-38100000D03*
D11*
X47625000Y-38100000D03*
D10*
X52705000Y-38100000D03*
D12*
X43815000Y-35560000D03*
X50165000Y-33020000D03*
%TD*%
D10*
%TO.C,MX64*%
X266382500Y-100012500D03*
D11*
X271462500Y-100012500D03*
D10*
X276542500Y-100012500D03*
D12*
X267652500Y-97472500D03*
X274002500Y-94932500D03*
%TD*%
D10*
%TO.C,MX45*%
X223520000Y-80962500D03*
D11*
X228600000Y-80962500D03*
D10*
X233680000Y-80962500D03*
D12*
X224790000Y-78422500D03*
X231140000Y-75882500D03*
%TD*%
D10*
%TO.C,MX63*%
X247332500Y-100012500D03*
D11*
X252412500Y-100012500D03*
D10*
X257492500Y-100012500D03*
D12*
X248602500Y-97472500D03*
X254952500Y-94932500D03*
%TD*%
D10*
%TO.C,MX19*%
X61595000Y-61912500D03*
D11*
X66675000Y-61912500D03*
D10*
X71755000Y-61912500D03*
D12*
X62865000Y-59372500D03*
X69215000Y-56832500D03*
%TD*%
D10*
%TO.C,MX84*%
X235426250Y-138112500D03*
D11*
X240506250Y-138112500D03*
D10*
X245586250Y-138112500D03*
D12*
X236696250Y-135572500D03*
X243046250Y-133032500D03*
%TD*%
D10*
%TO.C,MX65*%
X297338750Y-100012500D03*
D11*
X302418750Y-100012500D03*
D10*
X307498750Y-100012500D03*
D12*
X298608750Y-97472500D03*
X304958750Y-94932500D03*
%TD*%
D10*
%TO.C,MX53*%
X44926250Y-100012500D03*
X49688750Y-100012500D03*
D11*
X50006250Y-100012500D03*
X54768750Y-100012500D03*
D10*
X55086250Y-100012500D03*
X59848750Y-100012500D03*
D12*
X50958750Y-97472500D03*
X52546250Y-94932500D03*
X46196250Y-97472500D03*
X57308750Y-94932500D03*
%TD*%
D10*
%TO.C,MX26*%
X194945000Y-61912500D03*
D11*
X200025000Y-61912500D03*
D10*
X205105000Y-61912500D03*
D12*
X196215000Y-59372500D03*
X202565000Y-56832500D03*
%TD*%
D10*
%TO.C,MX42*%
X166370000Y-80962500D03*
D11*
X171450000Y-80962500D03*
D10*
X176530000Y-80962500D03*
D12*
X167640000Y-78422500D03*
X173990000Y-75882500D03*
%TD*%
D10*
%TO.C,MX23*%
X137795000Y-61912500D03*
D11*
X142875000Y-61912500D03*
D10*
X147955000Y-61912500D03*
D12*
X139065000Y-59372500D03*
X145415000Y-56832500D03*
%TD*%
D10*
%TO.C,MX61*%
X209232500Y-100012500D03*
D11*
X214312500Y-100012500D03*
D10*
X219392500Y-100012500D03*
D12*
X210502500Y-97472500D03*
X216852500Y-94932500D03*
%TD*%
D10*
%TO.C,MX69*%
X123507500Y-119062500D03*
D11*
X128587500Y-119062500D03*
D10*
X133667500Y-119062500D03*
D12*
X124777500Y-116522500D03*
X131127500Y-113982500D03*
%TD*%
D10*
%TO.C,MX81*%
X68738750Y-138112500D03*
X71120000Y-138112500D03*
D11*
X73818750Y-138112500D03*
X76200000Y-138112500D03*
D10*
X78898750Y-138112500D03*
X81280000Y-138112500D03*
D12*
X70008750Y-135572500D03*
X72390000Y-135572500D03*
X76358750Y-133032500D03*
X78740000Y-133032500D03*
%TD*%
D10*
%TO.C,MX31*%
X290195000Y-61912500D03*
D11*
X295275000Y-61912500D03*
D10*
X300355000Y-61912500D03*
D12*
X291465000Y-59372500D03*
X297815000Y-56832500D03*
%TD*%
D13*
%TO.C,REF\u002A\u002A*%
X252412500Y-127062500D03*
%TD*%
D10*
%TO.C,MX62*%
X228282500Y-100012500D03*
D11*
X233362500Y-100012500D03*
D10*
X238442500Y-100012500D03*
D12*
X229552500Y-97472500D03*
X235902500Y-94932500D03*
%TD*%
D10*
%TO.C,MX55*%
X94932500Y-100012500D03*
D11*
X100012500Y-100012500D03*
D10*
X105092500Y-100012500D03*
D12*
X96202500Y-97472500D03*
X102552500Y-94932500D03*
%TD*%
D10*
%TO.C,MX79*%
X352107500Y-119062500D03*
D11*
X357187500Y-119062500D03*
D10*
X362267500Y-119062500D03*
D12*
X353377500Y-116522500D03*
X359727500Y-113982500D03*
%TD*%
D10*
%TO.C,MX25*%
X175895000Y-61912500D03*
D11*
X180975000Y-61912500D03*
D10*
X186055000Y-61912500D03*
D12*
X177165000Y-59372500D03*
X183515000Y-56832500D03*
%TD*%
D10*
%TO.C,MX52*%
X371157500Y-80962500D03*
D11*
X376237500Y-80962500D03*
D10*
X381317500Y-80962500D03*
D12*
X372427500Y-78422500D03*
X378777500Y-75882500D03*
%TD*%
D10*
%TO.C,MX49*%
X304482500Y-80962500D03*
D11*
X309562500Y-80962500D03*
D10*
X314642500Y-80962500D03*
D12*
X305752500Y-78422500D03*
X312102500Y-75882500D03*
%TD*%
D10*
%TO.C,MX27*%
X213995000Y-61912500D03*
D11*
X219075000Y-61912500D03*
D10*
X224155000Y-61912500D03*
D12*
X215265000Y-59372500D03*
X221615000Y-56832500D03*
%TD*%
D10*
%TO.C,MX18*%
X42545000Y-61912500D03*
D11*
X47625000Y-61912500D03*
D10*
X52705000Y-61912500D03*
D12*
X43815000Y-59372500D03*
X50165000Y-56832500D03*
%TD*%
D10*
%TO.C,MX68*%
X104457500Y-119062500D03*
D11*
X109537500Y-119062500D03*
D10*
X114617500Y-119062500D03*
D12*
X105727500Y-116522500D03*
X112077500Y-113982500D03*
%TD*%
D10*
%TO.C,MX30*%
X271145000Y-61912500D03*
D11*
X276225000Y-61912500D03*
D10*
X281305000Y-61912500D03*
D12*
X272415000Y-59372500D03*
X278765000Y-56832500D03*
%TD*%
D10*
%TO.C,MX88*%
X333057500Y-138112500D03*
D11*
X338137500Y-138112500D03*
D10*
X343217500Y-138112500D03*
D12*
X334327500Y-135572500D03*
X340677500Y-133032500D03*
%TD*%
D10*
%TO.C,MX5*%
X123507500Y-38100000D03*
D11*
X128587500Y-38100000D03*
D10*
X133667500Y-38100000D03*
D12*
X124777500Y-35560000D03*
X131127500Y-33020000D03*
%TD*%
D10*
%TO.C,MX16*%
X352107500Y-38100000D03*
D11*
X357187500Y-38100000D03*
D10*
X362267500Y-38100000D03*
D12*
X353377500Y-35560000D03*
X359727500Y-33020000D03*
%TD*%
D10*
%TO.C,MX87*%
X304482500Y-138112500D03*
X306863750Y-138112500D03*
D11*
X309562500Y-138112500D03*
X311943750Y-138112500D03*
D10*
X314642500Y-138112500D03*
X317023750Y-138112500D03*
D12*
X305752500Y-135572500D03*
X308133750Y-135572500D03*
X312102500Y-133032500D03*
X314483750Y-133032500D03*
%TD*%
D10*
%TO.C,MX56*%
X113982500Y-100012500D03*
D11*
X119062500Y-100012500D03*
D10*
X124142500Y-100012500D03*
D12*
X115252500Y-97472500D03*
X121602500Y-94932500D03*
%TD*%
D10*
%TO.C,MX85*%
X256857500Y-138112500D03*
X259238750Y-138112500D03*
D11*
X261937500Y-138112500D03*
X264318750Y-138112500D03*
D10*
X267017500Y-138112500D03*
X269398750Y-138112500D03*
D12*
X258127500Y-135572500D03*
X260508750Y-135572500D03*
X264477500Y-133032500D03*
X266858750Y-133032500D03*
%TD*%
D16*
%TO.C,REF\u002A\u002A*%
X238125000Y-145097499D03*
D17*
X238125000Y-129887500D03*
D16*
X123825000Y-145097499D03*
D17*
X123825000Y-129887500D03*
%TD*%
D10*
%TO.C,MX54*%
X75882500Y-100012500D03*
D11*
X80962500Y-100012500D03*
D10*
X86042500Y-100012500D03*
D12*
X77152500Y-97472500D03*
X83502500Y-94932500D03*
%TD*%
D10*
%TO.C,MX80*%
X44926250Y-138112500D03*
X47307500Y-138112500D03*
D11*
X50006250Y-138112500D03*
X52387500Y-138112500D03*
D10*
X55086250Y-138112500D03*
X57467500Y-138112500D03*
D12*
X46196250Y-135572500D03*
X48577500Y-135572500D03*
X52546250Y-133032500D03*
X54927500Y-133032500D03*
%TD*%
D10*
%TO.C,MX15*%
X333057500Y-38100000D03*
D11*
X338137500Y-38100000D03*
D10*
X343217500Y-38100000D03*
D12*
X334327500Y-35560000D03*
X340677500Y-33020000D03*
%TD*%
D10*
%TO.C,MX11*%
X247332500Y-38100000D03*
D11*
X252412500Y-38100000D03*
D10*
X257492500Y-38100000D03*
D12*
X248602500Y-35560000D03*
X254952500Y-33020000D03*
%TD*%
D10*
%TO.C,MX2*%
X66357500Y-38100000D03*
D11*
X71437500Y-38100000D03*
D10*
X76517500Y-38100000D03*
D12*
X67627500Y-35560000D03*
X73977500Y-33020000D03*
%TD*%
D10*
%TO.C,MX7*%
X166370000Y-38100000D03*
D11*
X171450000Y-38100000D03*
D10*
X176530000Y-38100000D03*
D12*
X167640000Y-35560000D03*
X173990000Y-33020000D03*
%TD*%
D10*
%TO.C,MX32*%
X299720000Y-61912500D03*
D11*
X304800000Y-61912500D03*
D10*
X309245000Y-61912500D03*
X309880000Y-61912500D03*
D11*
X314325000Y-61912500D03*
D10*
X319405000Y-61912500D03*
D12*
X300990000Y-59372500D03*
X310515000Y-59372500D03*
X307340000Y-56832500D03*
X316865000Y-56832500D03*
%TD*%
D10*
%TO.C,MX78*%
X309245000Y-119062500D03*
D11*
X314325000Y-119062500D03*
D10*
X319405000Y-119062500D03*
D12*
X310515000Y-116522500D03*
X316865000Y-113982500D03*
%TD*%
D10*
%TO.C,MX58*%
X152082500Y-100012500D03*
D11*
X157162500Y-100012500D03*
D10*
X162242500Y-100012500D03*
D12*
X153352500Y-97472500D03*
X159702500Y-94932500D03*
%TD*%
D10*
%TO.C,MX21*%
X99695000Y-61912500D03*
D11*
X104775000Y-61912500D03*
D10*
X109855000Y-61912500D03*
D12*
X100965000Y-59372500D03*
X107315000Y-56832500D03*
%TD*%
D10*
%TO.C,MX17*%
X371157500Y-38100000D03*
D11*
X376237500Y-38100000D03*
D10*
X381317500Y-38100000D03*
D12*
X372427500Y-35560000D03*
X378777500Y-33020000D03*
%TD*%
D10*
%TO.C,MX59*%
X171132500Y-100012500D03*
D11*
X176212500Y-100012500D03*
D10*
X181292500Y-100012500D03*
D12*
X172402500Y-97472500D03*
X178752500Y-94932500D03*
%TD*%
D10*
%TO.C,MX90*%
X371157500Y-138112500D03*
D11*
X376237500Y-138112500D03*
D10*
X381317500Y-138112500D03*
D12*
X372427500Y-135572500D03*
X378777500Y-133032500D03*
%TD*%
D10*
%TO.C,MX47*%
X261620000Y-80962500D03*
D11*
X266700000Y-80962500D03*
D10*
X271780000Y-80962500D03*
D12*
X262890000Y-78422500D03*
X269240000Y-75882500D03*
%TD*%
D10*
%TO.C,MX35*%
X371157500Y-61912500D03*
D11*
X376237500Y-61912500D03*
D10*
X381317500Y-61912500D03*
D12*
X372427500Y-59372500D03*
X378777500Y-56832500D03*
%TD*%
D13*
%TO.C,REF\u002A\u002A*%
X366712500Y-130112500D03*
%TD*%
D10*
%TO.C,MX41*%
X147320000Y-80962500D03*
D11*
X152400000Y-80962500D03*
D10*
X157480000Y-80962500D03*
D12*
X148590000Y-78422500D03*
X154940000Y-75882500D03*
%TD*%
D10*
%TO.C,MX60*%
X190182500Y-100012500D03*
D11*
X195262500Y-100012500D03*
D10*
X200342500Y-100012500D03*
D12*
X191452500Y-97472500D03*
X197802500Y-94932500D03*
%TD*%
D10*
%TO.C,MX20*%
X80645000Y-61912500D03*
D11*
X85725000Y-61912500D03*
D10*
X90805000Y-61912500D03*
D12*
X81915000Y-59372500D03*
X88265000Y-56832500D03*
%TD*%
D10*
%TO.C,MX29*%
X252095000Y-61912500D03*
D11*
X257175000Y-61912500D03*
D10*
X262255000Y-61912500D03*
D12*
X253365000Y-59372500D03*
X259715000Y-56832500D03*
%TD*%
D16*
%TO.C,REF\u002A\u002A*%
X285718250Y-112077500D03*
D17*
X285718250Y-127287500D03*
D16*
X309594250Y-112077500D03*
D17*
X309594250Y-127287500D03*
%TD*%
D10*
%TO.C,MX77*%
X283051250Y-119062500D03*
D11*
X288131250Y-119062500D03*
D10*
X292576250Y-119062500D03*
X293211250Y-119062500D03*
D11*
X297656250Y-119062500D03*
D10*
X302736250Y-119062500D03*
D12*
X284321250Y-116522500D03*
X300196250Y-113982500D03*
X290671250Y-113982500D03*
X293846250Y-116522500D03*
%TD*%
D10*
%TO.C,MX73*%
X199707500Y-119062500D03*
D11*
X204787500Y-119062500D03*
D10*
X209867500Y-119062500D03*
D12*
X200977500Y-116522500D03*
X207327500Y-113982500D03*
%TD*%
D10*
%TO.C,MX34*%
X352107500Y-61912500D03*
D11*
X357187500Y-61912500D03*
D10*
X362267500Y-61912500D03*
D12*
X353377500Y-59372500D03*
X359727500Y-56832500D03*
%TD*%
D16*
%TO.C,REF\u002A\u002A*%
X290480750Y-93027500D03*
D17*
X290480750Y-108237500D03*
D16*
X314356750Y-93027500D03*
D17*
X314356750Y-108237500D03*
%TD*%
D10*
%TO.C,MX33*%
X333057500Y-61912500D03*
D11*
X338137500Y-61912500D03*
D10*
X343217500Y-61912500D03*
D12*
X334327500Y-59372500D03*
X340677500Y-56832500D03*
%TD*%
D10*
%TO.C,MX50*%
X333057500Y-80962500D03*
D11*
X338137500Y-80962500D03*
D10*
X343217500Y-80962500D03*
D12*
X334327500Y-78422500D03*
X340677500Y-75882500D03*
%TD*%
D10*
%TO.C,MX89*%
X352107500Y-138112500D03*
D11*
X357187500Y-138112500D03*
D10*
X362267500Y-138112500D03*
D12*
X353377500Y-135572500D03*
X359727500Y-133032500D03*
%TD*%
D10*
%TO.C,MX4*%
X104457500Y-38100000D03*
D11*
X109537500Y-38100000D03*
D10*
X114617500Y-38100000D03*
D12*
X105727500Y-35560000D03*
X112077500Y-33020000D03*
%TD*%
D13*
%TO.C,REF\u002A\u002A*%
X61912500Y-130112500D03*
%TD*%
D10*
%TO.C,MX24*%
X156845000Y-61912500D03*
D11*
X161925000Y-61912500D03*
D10*
X167005000Y-61912500D03*
D12*
X158115000Y-59372500D03*
X164465000Y-56832500D03*
%TD*%
D10*
%TO.C,MX40*%
X128270000Y-80962500D03*
D11*
X133350000Y-80962500D03*
D10*
X138430000Y-80962500D03*
D12*
X129540000Y-78422500D03*
X135890000Y-75882500D03*
%TD*%
D10*
%TO.C,MX28*%
X233045000Y-61912500D03*
D11*
X238125000Y-61912500D03*
D10*
X243205000Y-61912500D03*
D12*
X234315000Y-59372500D03*
X240665000Y-56832500D03*
%TD*%
D10*
%TO.C,MX3*%
X85407500Y-38100000D03*
D11*
X90487500Y-38100000D03*
D10*
X95567500Y-38100000D03*
D12*
X86677500Y-35560000D03*
X93027500Y-33020000D03*
%TD*%
D16*
%TO.C,REF\u002A\u002A*%
X219068750Y-145097500D03*
D17*
X219068750Y-129887500D03*
D16*
X119068750Y-145097500D03*
D17*
X119068750Y-129887500D03*
%TD*%
D10*
%TO.C,MX67*%
X85407500Y-119062500D03*
D11*
X90487500Y-119062500D03*
D10*
X95567500Y-119062500D03*
D12*
X86677500Y-116522500D03*
X93027500Y-113982500D03*
%TD*%
D16*
%TO.C,REF\u002A\u002A*%
X47593250Y-112077500D03*
D17*
X47593250Y-127287500D03*
D16*
X71469250Y-112077500D03*
D17*
X71469250Y-127287500D03*
%TD*%
D10*
%TO.C,MX44*%
X204470000Y-80962500D03*
D11*
X209550000Y-80962500D03*
D10*
X214630000Y-80962500D03*
D12*
X205740000Y-78422500D03*
X212090000Y-75882500D03*
%TD*%
D14*
%TO.C,D93*%
X51276250Y-105092500D03*
X53498750Y-105092500D03*
D15*
X48736250Y-105092500D03*
X56038750Y-105092500D03*
%TD*%
D10*
%TO.C,MX14*%
X309245000Y-38100000D03*
D11*
X314325000Y-38100000D03*
D10*
X319405000Y-38100000D03*
D12*
X310515000Y-35560000D03*
X316865000Y-33020000D03*
%TD*%
D10*
%TO.C,MX37*%
X71120000Y-80962500D03*
D11*
X76200000Y-80962500D03*
D10*
X81280000Y-80962500D03*
D12*
X72390000Y-78422500D03*
X78740000Y-75882500D03*
%TD*%
D10*
%TO.C,MX66*%
X54451250Y-119062500D03*
D11*
X59531250Y-119062500D03*
D10*
X64611250Y-119062500D03*
D12*
X55721250Y-116522500D03*
X62071250Y-113982500D03*
%TD*%
D10*
%TO.C,MX9*%
X204470000Y-38100000D03*
D11*
X209550000Y-38100000D03*
D10*
X214630000Y-38100000D03*
D12*
X205740000Y-35560000D03*
X212090000Y-33020000D03*
%TD*%
D10*
%TO.C,MX6*%
X147320000Y-38100000D03*
D11*
X152400000Y-38100000D03*
D10*
X157480000Y-38100000D03*
D12*
X148590000Y-35560000D03*
X154940000Y-33020000D03*
%TD*%
D16*
%TO.C,REF\u002A\u002A*%
X292862000Y-54927500D03*
D17*
X292862000Y-70137500D03*
D16*
X316738000Y-54927500D03*
D17*
X316738000Y-70137500D03*
%TD*%
D10*
%TO.C,MX71*%
X161607500Y-119062500D03*
D11*
X166687500Y-119062500D03*
D10*
X171767500Y-119062500D03*
D12*
X162877500Y-116522500D03*
X169227500Y-113982500D03*
%TD*%
D10*
%TO.C,MX46*%
X242570000Y-80962500D03*
D11*
X247650000Y-80962500D03*
D10*
X252730000Y-80962500D03*
D12*
X243840000Y-78422500D03*
X250190000Y-75882500D03*
%TD*%
D10*
%TO.C,MX72*%
X180657500Y-119062500D03*
D11*
X185737500Y-119062500D03*
D10*
X190817500Y-119062500D03*
D12*
X181927500Y-116522500D03*
X188277500Y-113982500D03*
%TD*%
D10*
%TO.C,MX39*%
X109220000Y-80962500D03*
D11*
X114300000Y-80962500D03*
D10*
X119380000Y-80962500D03*
D12*
X110490000Y-78422500D03*
X116840000Y-75882500D03*
%TD*%
D10*
%TO.C,MX12*%
X266382500Y-38100000D03*
D11*
X271462500Y-38100000D03*
D10*
X276542500Y-38100000D03*
D12*
X267652500Y-35560000D03*
X274002500Y-33020000D03*
%TD*%
D10*
%TO.C,MX43*%
X185420000Y-80962500D03*
D11*
X190500000Y-80962500D03*
D10*
X195580000Y-80962500D03*
D12*
X186690000Y-78422500D03*
X193040000Y-75882500D03*
%TD*%
D10*
%TO.C,MX10*%
X228282500Y-38100000D03*
D11*
X233362500Y-38100000D03*
D10*
X238442500Y-38100000D03*
D12*
X229552500Y-35560000D03*
X235902500Y-33020000D03*
%TD*%
D10*
%TO.C,MX51*%
X352107500Y-80962500D03*
D11*
X357187500Y-80962500D03*
D10*
X362267500Y-80962500D03*
D12*
X353377500Y-78422500D03*
X359727500Y-75882500D03*
%TD*%
D10*
%TO.C,MX38*%
X90170000Y-80962500D03*
D11*
X95250000Y-80962500D03*
D10*
X100330000Y-80962500D03*
D12*
X91440000Y-78422500D03*
X97790000Y-75882500D03*
%TD*%
M02*
