%TF.GenerationSoftware,KiCad,Pcbnew,8.0.1*%
%TF.CreationDate,2025-12-31T00:35:04+09:00*%
%TF.ProjectId,rubrejaneTKL_RP2040_Piano,72756272-656a-4616-9e65-544b4c5f5250,rev?*%
%TF.SameCoordinates,Original*%
%TF.FileFunction,Profile,NP*%
%FSLAX46Y46*%
G04 Gerber Fmt 4.6, Leading zero omitted, Abs format (unit mm)*
G04 Created by KiCad (PCBNEW 8.0.1) date 2025-12-31 00:35:04*
%MOMM*%
%LPD*%
G01*
G04 APERTURE LIST*
%TA.AperFunction,Profile*%
%ADD10C,0.500000*%
%TD*%
G04 APERTURE END LIST*
D10*
X379352692Y-29674634D02*
G75*
G02*
X384102666Y-34424635I8J-4749966D01*
G01*
X246451553Y-146537865D02*
G75*
G02*
X253810863Y-146537902I3679647J-1568535D01*
G01*
X44509849Y-146537865D02*
G75*
G02*
X39759835Y-141787849I1J4750015D01*
G01*
X384102693Y-141787865D02*
G75*
G02*
X379352692Y-146537893I-4749993J-35D01*
G01*
X121112116Y-146537867D02*
X121781633Y-146537867D01*
X217471840Y-29674634D02*
X144690660Y-29674634D01*
X39759806Y-34424650D02*
X39759806Y-141787850D01*
X39759833Y-141787849D02*
X39759806Y-141787850D01*
X136771839Y-29674634D02*
X63890658Y-29674634D01*
X343751556Y-146537865D02*
G75*
G02*
X351111029Y-146537832I3679744J-1568135D01*
G01*
X63890657Y-29674634D02*
G75*
G02*
X55971841Y-29674634I-3959408J568378D01*
G01*
X44509849Y-146537865D02*
X88251552Y-146537865D01*
X121112115Y-146537866D02*
G75*
G02*
X117025317Y-146537912I-2043415J1440166D01*
G01*
X39759806Y-34424650D02*
G75*
G02*
X44493835Y-29674633I4750044J0D01*
G01*
X88251553Y-146537865D02*
G75*
G02*
X95610945Y-146537865I3679696J-1568387D01*
G01*
X125868364Y-146537866D02*
G75*
G02*
X121781634Y-146537866I-2043365J1440367D01*
G01*
X240168362Y-146537867D02*
G75*
G02*
X236081637Y-146537865I-2043362J1440367D01*
G01*
X379352692Y-29674634D02*
X370671909Y-29674634D01*
X240168362Y-146537867D02*
X246451553Y-146537865D01*
X253810945Y-146537867D02*
X343751556Y-146537865D01*
X225390660Y-29674634D02*
G75*
G02*
X217471842Y-29674634I-3959409J568385D01*
G01*
X351110949Y-146537866D02*
X379352692Y-146537865D01*
X144690659Y-29674634D02*
G75*
G02*
X136771841Y-29674634I-3959409J568385D01*
G01*
X306090657Y-29674634D02*
G75*
G02*
X298171839Y-29674634I-3959409J568378D01*
G01*
X125868365Y-146537867D02*
X217025385Y-146537865D01*
X298171837Y-29674634D02*
X225390661Y-29674634D01*
X221112113Y-146537867D02*
G75*
G02*
X217025319Y-146537912I-2043413J1440167D01*
G01*
X362753090Y-29674634D02*
X306090658Y-29674634D01*
X221112113Y-146537867D02*
X236081637Y-146537865D01*
X55971839Y-29674634D02*
X44493835Y-29674633D01*
X384102693Y-141787865D02*
X384102693Y-34424635D01*
X370671909Y-29674634D02*
G75*
G02*
X362753091Y-29674634I-3959409J568384D01*
G01*
X95610946Y-146537865D02*
X117025383Y-146537866D01*
M02*
