M48
; DRILL file {KiCad 8.0.1} date 2025-12-31T00:35:06+0900
; FORMAT={-:-/ absolute / metric / decimal}
; #@! TF.CreationDate,2025-12-31T00:35:06+09:00
; #@! TF.GenerationSoftware,Kicad,Pcbnew,8.0.1
; #@! TF.FileFunction,NonPlated,1,2,NPTH
FMAT,2
METRIC
; #@! TA.AperFunction,NonPlated,NPTH,ComponentDrill
T1C1.700
; #@! TA.AperFunction,NonPlated,NPTH,ComponentDrill
T2C3.048
; #@! TA.AperFunction,NonPlated,NPTH,ComponentDrill
T3C3.988
; #@! TA.AperFunction,NonPlated,NPTH,ComponentDrill
T4C4.000
; #@! TA.AperFunction,NonPlated,NPTH,ComponentDrill
T5C5.000
%
G90
G05
T1
X42.545Y-38.1
X42.545Y-61.912
X44.926Y-100.012
X44.926Y-138.112
X47.307Y-80.962
X47.307Y-138.112
X49.689Y-100.012
X52.705Y-38.1
X52.705Y-61.912
X54.451Y-119.062
X55.086Y-100.012
X55.086Y-138.112
X57.467Y-80.962
X57.467Y-138.112
X59.849Y-100.012
X61.595Y-61.912
X64.611Y-119.062
X66.358Y-38.1
X68.739Y-138.112
X71.12Y-80.962
X71.12Y-138.112
X71.755Y-61.912
X75.882Y-100.012
X76.517Y-38.1
X78.899Y-138.112
X80.645Y-61.912
X81.28Y-80.962
X81.28Y-138.112
X85.407Y-38.1
X85.407Y-119.062
X86.042Y-100.012
X90.17Y-80.962
X90.805Y-61.912
X92.551Y-138.112
X94.932Y-100.012
X94.932Y-138.112
X95.567Y-38.1
X95.567Y-119.062
X99.695Y-61.912
X100.33Y-80.962
X102.711Y-138.112
X104.457Y-38.1
X104.457Y-119.062
X105.093Y-100.012
X105.093Y-138.112
X109.22Y-80.962
X109.855Y-61.912
X113.983Y-100.012
X114.617Y-38.1
X114.617Y-119.062
X118.745Y-61.912
X119.38Y-80.962
X123.507Y-38.1
X123.507Y-119.062
X124.142Y-100.012
X128.27Y-80.962
X128.905Y-61.912
X133.032Y-100.012
X133.667Y-38.1
X133.667Y-119.062
X137.795Y-61.912
X138.43Y-80.962
X142.558Y-119.062
X143.192Y-100.012
X147.32Y-38.1
X147.32Y-80.962
X147.955Y-61.912
X152.082Y-100.012
X152.718Y-119.062
X156.845Y-61.912
X157.48Y-38.1
X157.48Y-80.962
X161.607Y-119.062
X162.243Y-100.012
X163.989Y-138.112
X166.37Y-38.1
X166.37Y-80.962
X167.005Y-61.912
X171.132Y-100.012
X171.767Y-119.062
X174.149Y-138.112
X175.895Y-61.912
X175.895Y-138.112
X176.53Y-38.1
X176.53Y-80.962
X180.657Y-119.062
X181.292Y-100.012
X185.42Y-38.1
X185.42Y-80.962
X186.055Y-61.912
X186.055Y-138.112
X190.183Y-100.012
X190.817Y-119.062
X194.945Y-61.912
X195.58Y-38.1
X195.58Y-80.962
X199.707Y-119.062
X200.343Y-100.012
X204.47Y-38.1
X204.47Y-80.962
X205.105Y-61.912
X209.232Y-100.012
X209.867Y-119.062
X213.995Y-61.912
X214.63Y-38.1
X214.63Y-80.962
X218.757Y-119.062
X219.392Y-100.012
X223.52Y-80.962
X224.155Y-61.912
X228.282Y-38.1
X228.282Y-100.012
X228.917Y-119.062
X233.045Y-61.912
X233.68Y-80.962
X235.426Y-138.112
X237.807Y-119.062
X238.442Y-38.1
X238.442Y-100.012
X242.57Y-80.962
X243.205Y-61.912
X245.586Y-138.112
X247.332Y-38.1
X247.332Y-100.012
X247.968Y-119.062
X252.095Y-61.912
X252.73Y-80.962
X256.858Y-119.062
X256.858Y-138.112
X257.493Y-38.1
X257.493Y-100.012
X259.239Y-138.112
X261.62Y-80.962
X262.255Y-61.912
X266.382Y-38.1
X266.382Y-100.012
X267.017Y-119.062
X267.017Y-138.112
X269.399Y-138.112
X271.145Y-61.912
X271.78Y-80.962
X276.542Y-38.1
X276.542Y-100.012
X280.67Y-80.962
X280.67Y-138.112
X281.305Y-61.912
X283.051Y-119.062
X283.051Y-138.112
X285.433Y-38.1
X290.195Y-61.912
X290.83Y-80.962
X290.83Y-138.112
X292.576Y-119.062
X293.211Y-119.062
X293.211Y-138.112
X295.592Y-38.1
X297.339Y-100.012
X299.72Y-61.912
X300.355Y-61.912
X302.736Y-119.062
X304.482Y-80.962
X304.482Y-138.112
X306.864Y-138.112
X307.499Y-100.012
X309.245Y-38.1
X309.245Y-61.912
X309.245Y-119.062
X309.88Y-61.912
X314.642Y-80.962
X314.642Y-138.112
X317.024Y-138.112
X319.405Y-38.1
X319.405Y-61.912
X319.405Y-119.062
X333.058Y-38.1
X333.058Y-61.912
X333.058Y-80.962
X333.058Y-138.112
X343.217Y-38.1
X343.217Y-61.912
X343.217Y-80.962
X343.217Y-138.112
X352.107Y-38.1
X352.107Y-61.912
X352.107Y-80.962
X352.107Y-119.062
X352.107Y-138.112
X362.267Y-38.1
X362.267Y-61.912
X362.267Y-80.962
X362.267Y-119.062
X362.267Y-138.112
X371.157Y-38.1
X371.157Y-61.912
X371.157Y-80.962
X371.157Y-138.112
X381.317Y-38.1
X381.317Y-61.912
X381.317Y-80.962
X381.317Y-138.112
T2
X47.593Y-112.078
X71.469Y-112.078
X119.069Y-145.097
X123.825Y-145.097
X219.069Y-145.097
X238.125Y-145.097
X285.718Y-112.078
X290.481Y-93.027
X292.862Y-54.927
X309.594Y-112.078
X314.357Y-93.027
X316.738Y-54.927
T3
X47.593Y-127.287
X71.469Y-127.287
X119.069Y-129.887
X123.825Y-129.887
X219.069Y-129.887
X238.125Y-129.887
X285.718Y-127.287
X290.481Y-108.237
X292.862Y-70.138
X309.594Y-127.287
X314.357Y-108.237
X316.738Y-70.138
T4
X47.625Y-38.1
X47.625Y-61.912
X50.006Y-100.012
X50.006Y-138.112
X52.387Y-80.962
X52.387Y-138.112
X54.769Y-100.012
X59.531Y-119.062
X66.675Y-61.912
X71.438Y-38.1
X73.819Y-138.112
X76.2Y-80.962
X76.2Y-138.112
X80.962Y-100.012
X85.725Y-61.912
X90.487Y-38.1
X90.487Y-119.062
X95.25Y-80.962
X97.631Y-138.112
X100.012Y-100.012
X100.012Y-138.112
X104.775Y-61.912
X109.537Y-38.1
X109.537Y-119.062
X114.3Y-80.962
X119.062Y-100.012
X123.825Y-61.912
X128.588Y-38.1
X128.588Y-119.062
X133.35Y-80.962
X138.112Y-100.012
X142.875Y-61.912
X147.637Y-119.062
X152.4Y-38.1
X152.4Y-80.962
X157.162Y-100.012
X161.925Y-61.912
X166.688Y-119.062
X169.069Y-138.112
X171.45Y-38.1
X171.45Y-80.962
X176.213Y-100.012
X180.975Y-61.912
X180.975Y-138.112
X185.737Y-119.062
X190.5Y-38.1
X190.5Y-80.962
X195.262Y-100.012
X200.025Y-61.912
X204.787Y-119.062
X209.55Y-38.1
X209.55Y-80.962
X214.312Y-100.012
X219.075Y-61.912
X223.837Y-119.062
X228.6Y-80.962
X233.362Y-38.1
X233.362Y-100.012
X238.125Y-61.912
X240.506Y-138.112
X242.887Y-119.062
X247.65Y-80.962
X252.412Y-38.1
X252.412Y-100.012
X257.175Y-61.912
X261.938Y-119.062
X261.938Y-138.112
X264.319Y-138.112
X266.7Y-80.962
X271.462Y-38.1
X271.462Y-100.012
X276.225Y-61.912
X285.75Y-80.962
X285.75Y-138.112
X288.131Y-119.062
X288.131Y-138.112
X290.512Y-38.1
X295.275Y-61.912
X297.656Y-119.062
X302.419Y-100.012
X304.8Y-61.912
X309.562Y-80.962
X309.562Y-138.112
X311.944Y-138.112
X314.325Y-38.1
X314.325Y-61.912
X314.325Y-119.062
X338.137Y-38.1
X338.137Y-61.912
X338.137Y-80.962
X338.137Y-138.112
X357.188Y-38.1
X357.188Y-61.912
X357.188Y-80.962
X357.188Y-119.062
X357.188Y-138.112
X376.238Y-38.1
X376.238Y-61.912
X376.238Y-80.962
X376.238Y-138.112
T5
X61.912Y-130.112
X157.162Y-127.062
X252.412Y-127.062
X366.712Y-130.112
M30
