M48
; DRILL file {KiCad 8.0.1} date 2025-12-30T16:32:52+0900
; FORMAT={-:-/ absolute / metric / decimal}
; #@! TF.CreationDate,2025-12-30T16:32:52+09:00
; #@! TF.GenerationSoftware,Kicad,Pcbnew,8.0.1
; #@! TF.FileFunction,Plated,1,2,PTH
FMAT,2
METRIC
; #@! TA.AperFunction,Plated,PTH,ViaDrill
T1C0.300
; #@! TA.AperFunction,Plated,PTH,ComponentDrill
T2C0.350
; #@! TA.AperFunction,Plated,PTH,ComponentDrill
T3C0.991
; #@! TA.AperFunction,Plated,PTH,ComponentDrill
T4C1.800
%
G90
G05
T1
X79.975Y-93.125
X80.125Y-116.8
X82.609Y-174.9
X84.775Y-135.975
X88.35Y-95.637
X89.1Y-155.475
X92.025Y-174.025
X93.705Y-94.03
X94.705Y-90.325
X94.705Y-94.687
X99.225Y-116.9
X99.425Y-155.35
X103.986Y-177.336
X107.842Y-116.058
X107.975Y-111.075
X108.625Y-135.975
X109.4Y-111.075
X109.475Y-116.1
X114.45Y-155.1
X117.55Y-131.35
X117.55Y-144.0
X118.125Y-93.125
X118.375Y-116.7
X119.1Y-131.35
X119.1Y-144.0
X122.9Y-174.05
X127.7Y-135.975
X128.192Y-176.942
X132.55Y-155.05
X132.616Y-172.518
X134.575Y-173.525
X134.575Y-175.7
X137.2Y-93.075
X137.325Y-116.85
X140.45Y-173.525
X140.45Y-175.7
X146.725Y-135.9
X147.1Y-184.75
X147.625Y-183.8
X148.93Y-190.76
X148.95Y-188.905
X151.325Y-155.025
X151.825Y-183.7
X152.48Y-172.619
X154.475Y-176.85
X154.5Y-178.175
X154.925Y-183.7
X155.23Y-191.28
X156.2Y-93.025
X156.35Y-116.8
X157.075Y-173.175
X157.65Y-90.625
X158.15Y-174.75
X158.26Y-114.438
X158.425Y-181.95
X158.45Y-183.5
X158.55Y-192.125
X159.95Y-181.95
X159.975Y-183.5
X160.025Y-192.125
X161.336Y-188.732
X161.55Y-174.725
X161.8Y-173.175
X164.275Y-179.1
X164.6Y-176.75
X164.825Y-191.6
X165.5Y-192.275
X165.533Y-186.678
X165.8Y-136.0
X166.494Y-187.608
X167.35Y-192.25
X167.375Y-179.325
X168.185Y-133.487
X168.275Y-178.25
X169.06Y-190.24
X169.375Y-186.386
X169.425Y-177.025
X169.985Y-184.017
X170.4Y-154.9
X170.825Y-172.7
X172.0Y-180.825
X173.425Y-172.725
X173.575Y-152.537
X173.86Y-191.975
X174.055Y-187.125
X174.1Y-184.975
X175.225Y-116.875
X175.3Y-93.125
X175.6Y-181.625
X175.95Y-172.725
X176.675Y-169.65
X177.775Y-181.625
X178.5Y-172.725
X179.5Y-184.975
X180.0Y-181.625
X184.35Y-183.55
X184.7Y-135.975
X187.075Y-176.325
X187.225Y-182.825
X188.025Y-182.825
X188.825Y-182.825
X189.475Y-154.975
X189.6Y-171.588
X189.625Y-182.825
X190.275Y-173.4
X190.425Y-182.825
X191.667Y-173.225
X194.475Y-116.875
X203.9Y-135.975
X204.0Y-93.0
X208.625Y-154.95
X209.375Y-172.387
X213.525Y-116.925
X216.2Y-180.825
X216.2Y-190.825
X223.075Y-92.95
X223.1Y-135.975
X226.2Y-180.825
X226.2Y-190.825
X227.775Y-154.95
X228.188Y-172.612
X232.375Y-116.95
X236.2Y-180.825
X236.2Y-190.825
X241.975Y-135.95
X242.025Y-93.25
X243.75Y-175.45
X246.7Y-155.025
X246.92Y-172.619
X249.375Y-175.45
X251.55Y-116.825
X255.6Y-184.85
X261.025Y-93.0
X261.025Y-136.05
X265.8Y-154.975
X266.762Y-173.019
X270.525Y-116.95
X278.8Y-184.875
X280.0Y-135.875
X284.35Y-174.425
X284.925Y-155.025
X286.848Y-176.85
X289.55Y-116.8
X289.65Y-92.925
X292.6Y-174.425
X299.075Y-135.775
X300.35Y-174.425
X302.6Y-184.925
X304.0Y-154.95
X308.675Y-116.85
X308.7Y-92.975
X308.9Y-174.425
X310.704Y-175.216
X318.15Y-135.95
X322.225Y-173.35
X322.225Y-175.25
X326.475Y-184.925
X327.6Y-93.075
X327.8Y-116.95
X332.225Y-173.35
X332.225Y-175.25
X333.55Y-111.925
X333.7Y-192.2
X334.875Y-155.0
X339.668Y-175.216
X341.95Y-135.875
X344.55Y-192.2
X346.75Y-93.175
X347.45Y-116.975
X348.919Y-175.9
X349.325Y-176.625
X352.375Y-184.9
X355.65Y-192.2
X358.0Y-154.775
X358.907Y-134.287
X360.325Y-92.75
X360.55Y-116.875
X360.6Y-98.675
X362.012Y-177.1
X367.225Y-192.2
X370.5Y-92.975
X370.525Y-116.9
X381.062Y-177.575
X389.125Y-192.2
X389.7Y-93.025
X389.725Y-116.925
X407.925Y-154.95
X408.775Y-135.85
X408.8Y-116.95
X408.825Y-93.125
T2
X165.519Y-184.9
X166.42Y-183.998
X166.42Y-185.802
X167.322Y-183.097
X167.322Y-184.9
X167.322Y-186.703
X168.223Y-183.998
X168.223Y-185.802
X169.125Y-184.9
T3
X76.266Y-151.968
X78.806Y-151.968
X81.029Y-151.968
X83.569Y-151.968
X383.447Y-90.055
X385.987Y-90.055
T4
X71.345Y-82.435
X71.345Y-106.248
X73.726Y-144.347
X73.726Y-182.447
X76.108Y-125.297
X76.108Y-182.447
X77.695Y-79.895
X77.695Y-103.707
X78.489Y-144.347
X80.076Y-141.808
X80.076Y-179.907
X82.457Y-122.757
X82.457Y-179.907
X83.251Y-163.397
X84.839Y-141.808
X89.601Y-160.857
X90.395Y-106.248
X96.745Y-103.707
X97.539Y-182.447
X99.92Y-125.297
X99.92Y-182.447
X103.889Y-179.907
X104.682Y-144.347
X106.27Y-122.757
X106.27Y-179.907
X109.445Y-82.435
X109.445Y-106.248
X111.032Y-141.808
X114.207Y-163.397
X115.795Y-79.895
X115.795Y-103.707
X118.97Y-125.297
X120.557Y-160.857
X121.351Y-182.447
X123.732Y-144.347
X123.732Y-182.447
X125.32Y-122.757
X127.701Y-179.907
X128.495Y-82.435
X128.495Y-106.248
X130.082Y-141.808
X130.082Y-179.907
X133.257Y-163.397
X134.845Y-79.895
X134.845Y-103.707
X138.02Y-125.297
X139.607Y-160.857
X142.782Y-144.347
X144.37Y-122.757
X147.545Y-82.435
X147.545Y-106.248
X149.132Y-141.808
X152.308Y-163.397
X153.895Y-79.895
X153.895Y-103.707
X157.07Y-125.297
X158.657Y-160.857
X161.832Y-144.347
X163.42Y-122.757
X166.595Y-82.435
X166.595Y-106.248
X168.183Y-141.808
X171.357Y-163.397
X172.945Y-79.895
X172.945Y-103.707
X176.12Y-125.297
X177.707Y-160.857
X180.882Y-144.347
X182.47Y-122.757
X185.645Y-106.248
X187.232Y-141.808
X190.407Y-163.397
X191.995Y-103.707
X192.789Y-182.447
X195.17Y-82.435
X195.17Y-125.297
X196.757Y-160.857
X199.139Y-179.907
X199.933Y-144.347
X201.52Y-79.895
X201.52Y-122.757
X204.695Y-106.248
X204.695Y-182.447
X206.282Y-141.808
X209.457Y-163.397
X211.045Y-103.707
X211.045Y-179.907
X214.22Y-82.435
X214.22Y-125.297
X215.807Y-160.857
X218.982Y-144.347
X220.57Y-79.895
X220.57Y-122.757
X223.745Y-106.248
X225.332Y-141.808
X228.507Y-163.397
X230.095Y-103.707
X233.27Y-82.435
X233.27Y-125.297
X234.857Y-160.857
X238.032Y-144.347
X239.62Y-79.895
X239.62Y-122.757
X242.795Y-106.248
X244.382Y-141.808
X247.557Y-163.397
X249.145Y-103.707
X252.32Y-82.435
X252.32Y-125.297
X253.907Y-160.857
X257.082Y-144.347
X258.67Y-79.895
X258.67Y-122.757
X261.845Y-106.248
X263.433Y-141.808
X264.226Y-182.447
X266.608Y-163.397
X268.195Y-103.707
X270.576Y-179.907
X271.37Y-125.297
X272.957Y-160.857
X276.132Y-144.347
X277.72Y-122.757
X280.895Y-82.435
X280.895Y-106.248
X282.482Y-141.808
X285.657Y-163.397
X285.657Y-182.447
X287.245Y-79.895
X287.245Y-103.707
X288.039Y-182.447
X290.42Y-125.297
X292.007Y-160.857
X292.007Y-179.907
X294.389Y-179.907
X295.183Y-144.347
X296.77Y-122.757
X299.945Y-82.435
X299.945Y-106.248
X301.532Y-141.808
X306.295Y-79.895
X306.295Y-103.707
X309.47Y-125.297
X309.47Y-182.447
X311.851Y-163.397
X311.851Y-182.447
X315.82Y-122.757
X315.82Y-179.907
X318.201Y-160.857
X318.201Y-179.907
X318.995Y-82.435
X318.995Y-106.248
X321.376Y-163.397
X325.345Y-79.895
X325.345Y-103.707
X326.139Y-144.347
X327.726Y-160.857
X328.52Y-106.248
X332.489Y-141.808
X333.282Y-125.297
X333.282Y-182.447
X334.87Y-103.707
X335.664Y-182.447
X338.045Y-82.435
X338.045Y-106.248
X338.045Y-163.397
X339.632Y-122.757
X339.632Y-179.907
X342.014Y-179.907
X344.395Y-79.895
X344.395Y-103.707
X344.395Y-160.857
X361.857Y-82.435
X361.857Y-106.248
X361.857Y-125.297
X361.857Y-182.447
X368.207Y-79.895
X368.207Y-103.707
X368.207Y-122.757
X368.207Y-179.907
X380.907Y-82.435
X380.907Y-106.248
X380.907Y-125.297
X380.907Y-163.397
X380.907Y-182.447
X387.257Y-79.895
X387.257Y-103.707
X387.257Y-122.757
X387.257Y-160.857
X387.257Y-179.907
X399.957Y-82.435
X399.957Y-106.248
X399.957Y-125.297
X399.957Y-182.447
X406.308Y-79.895
X406.308Y-103.707
X406.308Y-122.757
X406.308Y-179.907
M30
