%TF.GenerationSoftware,KiCad,Pcbnew,8.0.1*%
%TF.CreationDate,2025-12-31T00:35:04+09:00*%
%TF.ProjectId,rubrejaneTKL_RP2040_Piano,72756272-656a-4616-9e65-544b4c5f5250,rev?*%
%TF.SameCoordinates,Original*%
%TF.FileFunction,Soldermask,Bot*%
%TF.FilePolarity,Negative*%
%FSLAX46Y46*%
G04 Gerber Fmt 4.6, Leading zero omitted, Abs format (unit mm)*
G04 Created by KiCad (PCBNEW 8.0.1) date 2025-12-31 00:35:04*
%MOMM*%
%LPD*%
G01*
G04 APERTURE LIST*
G04 Aperture macros list*
%AMRoundRect*
0 Rectangle with rounded corners*
0 $1 Rounding radius*
0 $2 $3 $4 $5 $6 $7 $8 $9 X,Y pos of 4 corners*
0 Add a 4 corners polygon primitive as box body*
4,1,4,$2,$3,$4,$5,$6,$7,$8,$9,$2,$3,0*
0 Add four circle primitives for the rounded corners*
1,1,$1+$1,$2,$3*
1,1,$1+$1,$4,$5*
1,1,$1+$1,$6,$7*
1,1,$1+$1,$8,$9*
0 Add four rect primitives between the rounded corners*
20,1,$1+$1,$2,$3,$4,$5,0*
20,1,$1+$1,$4,$5,$6,$7,0*
20,1,$1+$1,$6,$7,$8,$9,0*
20,1,$1+$1,$8,$9,$2,$3,0*%
G04 Aperture macros list end*
%ADD10C,1.700000*%
%ADD11C,4.000000*%
%ADD12C,2.500000*%
%ADD13C,5.000000*%
%ADD14C,1.690600*%
%ADD15R,1.690600X1.690600*%
%ADD16C,3.048000*%
%ADD17C,3.987800*%
%ADD18RoundRect,0.140000X0.170000X-0.140000X0.170000X0.140000X-0.170000X0.140000X-0.170000X-0.140000X0*%
%ADD19RoundRect,0.225000X0.375000X-0.225000X0.375000X0.225000X-0.375000X0.225000X-0.375000X-0.225000X0*%
%ADD20RoundRect,0.140000X0.140000X0.170000X-0.140000X0.170000X-0.140000X-0.170000X0.140000X-0.170000X0*%
%ADD21RoundRect,0.140000X-0.021213X0.219203X-0.219203X0.021213X0.021213X-0.219203X0.219203X-0.021213X0*%
%ADD22RoundRect,0.140000X-0.170000X0.140000X-0.170000X-0.140000X0.170000X-0.140000X0.170000X0.140000X0*%
%ADD23R,1.000000X0.900000*%
%ADD24RoundRect,0.140000X0.021213X-0.219203X0.219203X-0.021213X-0.021213X0.219203X-0.219203X0.021213X0*%
%ADD25RoundRect,0.225000X0.225000X0.250000X-0.225000X0.250000X-0.225000X-0.250000X0.225000X-0.250000X0*%
%ADD26RoundRect,0.150000X0.150000X-0.587500X0.150000X0.587500X-0.150000X0.587500X-0.150000X-0.587500X0*%
%ADD27RoundRect,0.140000X-0.219203X-0.021213X-0.021213X-0.219203X0.219203X0.021213X0.021213X0.219203X0*%
%ADD28RoundRect,0.150000X-0.150000X0.512500X-0.150000X-0.512500X0.150000X-0.512500X0.150000X0.512500X0*%
%ADD29RoundRect,0.150000X0.625000X-0.150000X0.625000X0.150000X-0.625000X0.150000X-0.625000X-0.150000X0*%
%ADD30RoundRect,0.250000X0.650000X-0.350000X0.650000X0.350000X-0.650000X0.350000X-0.650000X-0.350000X0*%
%ADD31RoundRect,0.150000X-0.150000X0.650000X-0.150000X-0.650000X0.150000X-0.650000X0.150000X0.650000X0*%
%ADD32R,1.000000X0.750000*%
%ADD33RoundRect,0.050000X-0.309359X0.238649X0.238649X-0.309359X0.309359X-0.238649X-0.238649X0.309359X0*%
%ADD34RoundRect,0.050000X-0.309359X-0.238649X-0.238649X-0.309359X0.309359X0.238649X0.238649X0.309359X0*%
%ADD35RoundRect,0.144000X-2.059095X0.000000X0.000000X-2.059095X2.059095X0.000000X0.000000X2.059095X0*%
G04 APERTURE END LIST*
D10*
%TO.C,MX22*%
X118745000Y-61912500D03*
D11*
X123825000Y-61912500D03*
D10*
X128905000Y-61912500D03*
D12*
X120015000Y-59372500D03*
X126365000Y-56832500D03*
%TD*%
D10*
%TO.C,MX83*%
X163988750Y-138112500D03*
D11*
X169068750Y-138112500D03*
D10*
X174148750Y-138112500D03*
X175895000Y-138112500D03*
D11*
X180975000Y-138112500D03*
D10*
X186055000Y-138112500D03*
D12*
X165258750Y-135572500D03*
X177165000Y-135572500D03*
X171608750Y-133032500D03*
X183515000Y-133032500D03*
%TD*%
D10*
%TO.C,MX70*%
X142557500Y-119062500D03*
D11*
X147637500Y-119062500D03*
D10*
X152717500Y-119062500D03*
D12*
X143827500Y-116522500D03*
X150177500Y-113982500D03*
%TD*%
D10*
%TO.C,MX8*%
X185420000Y-38100000D03*
D11*
X190500000Y-38100000D03*
D10*
X195580000Y-38100000D03*
D12*
X186690000Y-35560000D03*
X193040000Y-33020000D03*
%TD*%
D13*
%TO.C,REF\u002A\u002A*%
X157162500Y-127062500D03*
%TD*%
D14*
%TO.C,D94*%
X355917500Y-43180000D03*
D15*
X358457500Y-43180000D03*
%TD*%
D10*
%TO.C,MX48*%
X280670000Y-80962500D03*
D11*
X285750000Y-80962500D03*
D10*
X290830000Y-80962500D03*
D12*
X281940000Y-78422500D03*
X288290000Y-75882500D03*
%TD*%
D10*
%TO.C,MX76*%
X256857500Y-119062500D03*
D11*
X261937500Y-119062500D03*
D10*
X267017500Y-119062500D03*
D12*
X258127500Y-116522500D03*
X264477500Y-113982500D03*
%TD*%
D10*
%TO.C,MX82*%
X92551250Y-138112500D03*
X94932500Y-138112500D03*
D11*
X97631250Y-138112500D03*
X100012500Y-138112500D03*
D10*
X102711250Y-138112500D03*
X105092500Y-138112500D03*
D12*
X93821250Y-135572500D03*
X96202500Y-135572500D03*
X100171250Y-133032500D03*
X102552500Y-133032500D03*
%TD*%
D10*
%TO.C,MX13*%
X285432500Y-38100000D03*
D11*
X290512500Y-38100000D03*
D10*
X295592500Y-38100000D03*
D12*
X286702500Y-35560000D03*
X293052500Y-33020000D03*
%TD*%
D10*
%TO.C,MX36*%
X47307500Y-80962500D03*
D11*
X52387500Y-80962500D03*
D10*
X57467500Y-80962500D03*
D12*
X48577500Y-78422500D03*
X54927500Y-75882500D03*
%TD*%
D10*
%TO.C,MX57*%
X133032500Y-100012500D03*
D11*
X138112500Y-100012500D03*
D10*
X143192500Y-100012500D03*
D12*
X134302500Y-97472500D03*
X140652500Y-94932500D03*
%TD*%
D10*
%TO.C,MX86*%
X280670000Y-138112500D03*
X283051250Y-138112500D03*
D11*
X285750000Y-138112500D03*
X288131250Y-138112500D03*
D10*
X290830000Y-138112500D03*
X293211250Y-138112500D03*
D12*
X281940000Y-135572500D03*
X284321250Y-135572500D03*
X288290000Y-133032500D03*
X290671250Y-133032500D03*
%TD*%
D10*
%TO.C,MX74*%
X218757500Y-119062500D03*
D11*
X223837500Y-119062500D03*
D10*
X228917500Y-119062500D03*
D12*
X220027500Y-116522500D03*
X226377500Y-113982500D03*
%TD*%
D10*
%TO.C,MX75*%
X237807500Y-119062500D03*
D11*
X242887500Y-119062500D03*
D10*
X247967500Y-119062500D03*
D12*
X239077500Y-116522500D03*
X245427500Y-113982500D03*
%TD*%
D10*
%TO.C,MX1*%
X42545000Y-38100000D03*
D11*
X47625000Y-38100000D03*
D10*
X52705000Y-38100000D03*
D12*
X43815000Y-35560000D03*
X50165000Y-33020000D03*
%TD*%
D10*
%TO.C,MX64*%
X266382500Y-100012500D03*
D11*
X271462500Y-100012500D03*
D10*
X276542500Y-100012500D03*
D12*
X267652500Y-97472500D03*
X274002500Y-94932500D03*
%TD*%
D10*
%TO.C,MX45*%
X223520000Y-80962500D03*
D11*
X228600000Y-80962500D03*
D10*
X233680000Y-80962500D03*
D12*
X224790000Y-78422500D03*
X231140000Y-75882500D03*
%TD*%
D10*
%TO.C,MX63*%
X247332500Y-100012500D03*
D11*
X252412500Y-100012500D03*
D10*
X257492500Y-100012500D03*
D12*
X248602500Y-97472500D03*
X254952500Y-94932500D03*
%TD*%
D10*
%TO.C,MX19*%
X61595000Y-61912500D03*
D11*
X66675000Y-61912500D03*
D10*
X71755000Y-61912500D03*
D12*
X62865000Y-59372500D03*
X69215000Y-56832500D03*
%TD*%
D10*
%TO.C,MX84*%
X235426250Y-138112500D03*
D11*
X240506250Y-138112500D03*
D10*
X245586250Y-138112500D03*
D12*
X236696250Y-135572500D03*
X243046250Y-133032500D03*
%TD*%
D10*
%TO.C,MX65*%
X297338750Y-100012500D03*
D11*
X302418750Y-100012500D03*
D10*
X307498750Y-100012500D03*
D12*
X298608750Y-97472500D03*
X304958750Y-94932500D03*
%TD*%
D10*
%TO.C,MX53*%
X44926250Y-100012500D03*
X49688750Y-100012500D03*
D11*
X50006250Y-100012500D03*
X54768750Y-100012500D03*
D10*
X55086250Y-100012500D03*
X59848750Y-100012500D03*
D12*
X50958750Y-97472500D03*
X52546250Y-94932500D03*
X46196250Y-97472500D03*
X57308750Y-94932500D03*
%TD*%
D10*
%TO.C,MX26*%
X194945000Y-61912500D03*
D11*
X200025000Y-61912500D03*
D10*
X205105000Y-61912500D03*
D12*
X196215000Y-59372500D03*
X202565000Y-56832500D03*
%TD*%
D10*
%TO.C,MX42*%
X166370000Y-80962500D03*
D11*
X171450000Y-80962500D03*
D10*
X176530000Y-80962500D03*
D12*
X167640000Y-78422500D03*
X173990000Y-75882500D03*
%TD*%
D10*
%TO.C,MX23*%
X137795000Y-61912500D03*
D11*
X142875000Y-61912500D03*
D10*
X147955000Y-61912500D03*
D12*
X139065000Y-59372500D03*
X145415000Y-56832500D03*
%TD*%
D10*
%TO.C,MX61*%
X209232500Y-100012500D03*
D11*
X214312500Y-100012500D03*
D10*
X219392500Y-100012500D03*
D12*
X210502500Y-97472500D03*
X216852500Y-94932500D03*
%TD*%
D10*
%TO.C,MX69*%
X123507500Y-119062500D03*
D11*
X128587500Y-119062500D03*
D10*
X133667500Y-119062500D03*
D12*
X124777500Y-116522500D03*
X131127500Y-113982500D03*
%TD*%
D10*
%TO.C,MX81*%
X68738750Y-138112500D03*
X71120000Y-138112500D03*
D11*
X73818750Y-138112500D03*
X76200000Y-138112500D03*
D10*
X78898750Y-138112500D03*
X81280000Y-138112500D03*
D12*
X70008750Y-135572500D03*
X72390000Y-135572500D03*
X76358750Y-133032500D03*
X78740000Y-133032500D03*
%TD*%
D10*
%TO.C,MX31*%
X290195000Y-61912500D03*
D11*
X295275000Y-61912500D03*
D10*
X300355000Y-61912500D03*
D12*
X291465000Y-59372500D03*
X297815000Y-56832500D03*
%TD*%
D13*
%TO.C,REF\u002A\u002A*%
X252412500Y-127062500D03*
%TD*%
D10*
%TO.C,MX62*%
X228282500Y-100012500D03*
D11*
X233362500Y-100012500D03*
D10*
X238442500Y-100012500D03*
D12*
X229552500Y-97472500D03*
X235902500Y-94932500D03*
%TD*%
D10*
%TO.C,MX55*%
X94932500Y-100012500D03*
D11*
X100012500Y-100012500D03*
D10*
X105092500Y-100012500D03*
D12*
X96202500Y-97472500D03*
X102552500Y-94932500D03*
%TD*%
D10*
%TO.C,MX79*%
X352107500Y-119062500D03*
D11*
X357187500Y-119062500D03*
D10*
X362267500Y-119062500D03*
D12*
X353377500Y-116522500D03*
X359727500Y-113982500D03*
%TD*%
D10*
%TO.C,MX25*%
X175895000Y-61912500D03*
D11*
X180975000Y-61912500D03*
D10*
X186055000Y-61912500D03*
D12*
X177165000Y-59372500D03*
X183515000Y-56832500D03*
%TD*%
D10*
%TO.C,MX52*%
X371157500Y-80962500D03*
D11*
X376237500Y-80962500D03*
D10*
X381317500Y-80962500D03*
D12*
X372427500Y-78422500D03*
X378777500Y-75882500D03*
%TD*%
D10*
%TO.C,MX49*%
X304482500Y-80962500D03*
D11*
X309562500Y-80962500D03*
D10*
X314642500Y-80962500D03*
D12*
X305752500Y-78422500D03*
X312102500Y-75882500D03*
%TD*%
D10*
%TO.C,MX27*%
X213995000Y-61912500D03*
D11*
X219075000Y-61912500D03*
D10*
X224155000Y-61912500D03*
D12*
X215265000Y-59372500D03*
X221615000Y-56832500D03*
%TD*%
D10*
%TO.C,MX18*%
X42545000Y-61912500D03*
D11*
X47625000Y-61912500D03*
D10*
X52705000Y-61912500D03*
D12*
X43815000Y-59372500D03*
X50165000Y-56832500D03*
%TD*%
D10*
%TO.C,MX68*%
X104457500Y-119062500D03*
D11*
X109537500Y-119062500D03*
D10*
X114617500Y-119062500D03*
D12*
X105727500Y-116522500D03*
X112077500Y-113982500D03*
%TD*%
D10*
%TO.C,MX30*%
X271145000Y-61912500D03*
D11*
X276225000Y-61912500D03*
D10*
X281305000Y-61912500D03*
D12*
X272415000Y-59372500D03*
X278765000Y-56832500D03*
%TD*%
D10*
%TO.C,MX88*%
X333057500Y-138112500D03*
D11*
X338137500Y-138112500D03*
D10*
X343217500Y-138112500D03*
D12*
X334327500Y-135572500D03*
X340677500Y-133032500D03*
%TD*%
D10*
%TO.C,MX5*%
X123507500Y-38100000D03*
D11*
X128587500Y-38100000D03*
D10*
X133667500Y-38100000D03*
D12*
X124777500Y-35560000D03*
X131127500Y-33020000D03*
%TD*%
D10*
%TO.C,MX16*%
X352107500Y-38100000D03*
D11*
X357187500Y-38100000D03*
D10*
X362267500Y-38100000D03*
D12*
X353377500Y-35560000D03*
X359727500Y-33020000D03*
%TD*%
D10*
%TO.C,MX87*%
X304482500Y-138112500D03*
X306863750Y-138112500D03*
D11*
X309562500Y-138112500D03*
X311943750Y-138112500D03*
D10*
X314642500Y-138112500D03*
X317023750Y-138112500D03*
D12*
X305752500Y-135572500D03*
X308133750Y-135572500D03*
X312102500Y-133032500D03*
X314483750Y-133032500D03*
%TD*%
D10*
%TO.C,MX56*%
X113982500Y-100012500D03*
D11*
X119062500Y-100012500D03*
D10*
X124142500Y-100012500D03*
D12*
X115252500Y-97472500D03*
X121602500Y-94932500D03*
%TD*%
D10*
%TO.C,MX85*%
X256857500Y-138112500D03*
X259238750Y-138112500D03*
D11*
X261937500Y-138112500D03*
X264318750Y-138112500D03*
D10*
X267017500Y-138112500D03*
X269398750Y-138112500D03*
D12*
X258127500Y-135572500D03*
X260508750Y-135572500D03*
X264477500Y-133032500D03*
X266858750Y-133032500D03*
%TD*%
D16*
%TO.C,REF\u002A\u002A*%
X238125000Y-145097499D03*
D17*
X238125000Y-129887500D03*
D16*
X123825000Y-145097499D03*
D17*
X123825000Y-129887500D03*
%TD*%
D10*
%TO.C,MX54*%
X75882500Y-100012500D03*
D11*
X80962500Y-100012500D03*
D10*
X86042500Y-100012500D03*
D12*
X77152500Y-97472500D03*
X83502500Y-94932500D03*
%TD*%
D10*
%TO.C,MX80*%
X44926250Y-138112500D03*
X47307500Y-138112500D03*
D11*
X50006250Y-138112500D03*
X52387500Y-138112500D03*
D10*
X55086250Y-138112500D03*
X57467500Y-138112500D03*
D12*
X46196250Y-135572500D03*
X48577500Y-135572500D03*
X52546250Y-133032500D03*
X54927500Y-133032500D03*
%TD*%
D10*
%TO.C,MX15*%
X333057500Y-38100000D03*
D11*
X338137500Y-38100000D03*
D10*
X343217500Y-38100000D03*
D12*
X334327500Y-35560000D03*
X340677500Y-33020000D03*
%TD*%
D10*
%TO.C,MX11*%
X247332500Y-38100000D03*
D11*
X252412500Y-38100000D03*
D10*
X257492500Y-38100000D03*
D12*
X248602500Y-35560000D03*
X254952500Y-33020000D03*
%TD*%
D10*
%TO.C,MX2*%
X66357500Y-38100000D03*
D11*
X71437500Y-38100000D03*
D10*
X76517500Y-38100000D03*
D12*
X67627500Y-35560000D03*
X73977500Y-33020000D03*
%TD*%
D10*
%TO.C,MX7*%
X166370000Y-38100000D03*
D11*
X171450000Y-38100000D03*
D10*
X176530000Y-38100000D03*
D12*
X167640000Y-35560000D03*
X173990000Y-33020000D03*
%TD*%
D10*
%TO.C,MX32*%
X299720000Y-61912500D03*
D11*
X304800000Y-61912500D03*
D10*
X309245000Y-61912500D03*
X309880000Y-61912500D03*
D11*
X314325000Y-61912500D03*
D10*
X319405000Y-61912500D03*
D12*
X300990000Y-59372500D03*
X310515000Y-59372500D03*
X307340000Y-56832500D03*
X316865000Y-56832500D03*
%TD*%
D10*
%TO.C,MX78*%
X309245000Y-119062500D03*
D11*
X314325000Y-119062500D03*
D10*
X319405000Y-119062500D03*
D12*
X310515000Y-116522500D03*
X316865000Y-113982500D03*
%TD*%
D10*
%TO.C,MX58*%
X152082500Y-100012500D03*
D11*
X157162500Y-100012500D03*
D10*
X162242500Y-100012500D03*
D12*
X153352500Y-97472500D03*
X159702500Y-94932500D03*
%TD*%
D10*
%TO.C,MX21*%
X99695000Y-61912500D03*
D11*
X104775000Y-61912500D03*
D10*
X109855000Y-61912500D03*
D12*
X100965000Y-59372500D03*
X107315000Y-56832500D03*
%TD*%
D10*
%TO.C,MX17*%
X371157500Y-38100000D03*
D11*
X376237500Y-38100000D03*
D10*
X381317500Y-38100000D03*
D12*
X372427500Y-35560000D03*
X378777500Y-33020000D03*
%TD*%
D10*
%TO.C,MX59*%
X171132500Y-100012500D03*
D11*
X176212500Y-100012500D03*
D10*
X181292500Y-100012500D03*
D12*
X172402500Y-97472500D03*
X178752500Y-94932500D03*
%TD*%
D10*
%TO.C,MX90*%
X371157500Y-138112500D03*
D11*
X376237500Y-138112500D03*
D10*
X381317500Y-138112500D03*
D12*
X372427500Y-135572500D03*
X378777500Y-133032500D03*
%TD*%
D10*
%TO.C,MX47*%
X261620000Y-80962500D03*
D11*
X266700000Y-80962500D03*
D10*
X271780000Y-80962500D03*
D12*
X262890000Y-78422500D03*
X269240000Y-75882500D03*
%TD*%
D10*
%TO.C,MX35*%
X371157500Y-61912500D03*
D11*
X376237500Y-61912500D03*
D10*
X381317500Y-61912500D03*
D12*
X372427500Y-59372500D03*
X378777500Y-56832500D03*
%TD*%
D13*
%TO.C,REF\u002A\u002A*%
X366712500Y-130112500D03*
%TD*%
D10*
%TO.C,MX41*%
X147320000Y-80962500D03*
D11*
X152400000Y-80962500D03*
D10*
X157480000Y-80962500D03*
D12*
X148590000Y-78422500D03*
X154940000Y-75882500D03*
%TD*%
D10*
%TO.C,MX60*%
X190182500Y-100012500D03*
D11*
X195262500Y-100012500D03*
D10*
X200342500Y-100012500D03*
D12*
X191452500Y-97472500D03*
X197802500Y-94932500D03*
%TD*%
D10*
%TO.C,MX20*%
X80645000Y-61912500D03*
D11*
X85725000Y-61912500D03*
D10*
X90805000Y-61912500D03*
D12*
X81915000Y-59372500D03*
X88265000Y-56832500D03*
%TD*%
D10*
%TO.C,MX29*%
X252095000Y-61912500D03*
D11*
X257175000Y-61912500D03*
D10*
X262255000Y-61912500D03*
D12*
X253365000Y-59372500D03*
X259715000Y-56832500D03*
%TD*%
D16*
%TO.C,REF\u002A\u002A*%
X285718250Y-112077500D03*
D17*
X285718250Y-127287500D03*
D16*
X309594250Y-112077500D03*
D17*
X309594250Y-127287500D03*
%TD*%
D10*
%TO.C,MX77*%
X283051250Y-119062500D03*
D11*
X288131250Y-119062500D03*
D10*
X292576250Y-119062500D03*
X293211250Y-119062500D03*
D11*
X297656250Y-119062500D03*
D10*
X302736250Y-119062500D03*
D12*
X284321250Y-116522500D03*
X300196250Y-113982500D03*
X290671250Y-113982500D03*
X293846250Y-116522500D03*
%TD*%
D10*
%TO.C,MX73*%
X199707500Y-119062500D03*
D11*
X204787500Y-119062500D03*
D10*
X209867500Y-119062500D03*
D12*
X200977500Y-116522500D03*
X207327500Y-113982500D03*
%TD*%
D10*
%TO.C,MX34*%
X352107500Y-61912500D03*
D11*
X357187500Y-61912500D03*
D10*
X362267500Y-61912500D03*
D12*
X353377500Y-59372500D03*
X359727500Y-56832500D03*
%TD*%
D16*
%TO.C,REF\u002A\u002A*%
X290480750Y-93027500D03*
D17*
X290480750Y-108237500D03*
D16*
X314356750Y-93027500D03*
D17*
X314356750Y-108237500D03*
%TD*%
D10*
%TO.C,MX33*%
X333057500Y-61912500D03*
D11*
X338137500Y-61912500D03*
D10*
X343217500Y-61912500D03*
D12*
X334327500Y-59372500D03*
X340677500Y-56832500D03*
%TD*%
D10*
%TO.C,MX50*%
X333057500Y-80962500D03*
D11*
X338137500Y-80962500D03*
D10*
X343217500Y-80962500D03*
D12*
X334327500Y-78422500D03*
X340677500Y-75882500D03*
%TD*%
D10*
%TO.C,MX89*%
X352107500Y-138112500D03*
D11*
X357187500Y-138112500D03*
D10*
X362267500Y-138112500D03*
D12*
X353377500Y-135572500D03*
X359727500Y-133032500D03*
%TD*%
D10*
%TO.C,MX4*%
X104457500Y-38100000D03*
D11*
X109537500Y-38100000D03*
D10*
X114617500Y-38100000D03*
D12*
X105727500Y-35560000D03*
X112077500Y-33020000D03*
%TD*%
D13*
%TO.C,REF\u002A\u002A*%
X61912500Y-130112500D03*
%TD*%
D10*
%TO.C,MX24*%
X156845000Y-61912500D03*
D11*
X161925000Y-61912500D03*
D10*
X167005000Y-61912500D03*
D12*
X158115000Y-59372500D03*
X164465000Y-56832500D03*
%TD*%
D10*
%TO.C,MX40*%
X128270000Y-80962500D03*
D11*
X133350000Y-80962500D03*
D10*
X138430000Y-80962500D03*
D12*
X129540000Y-78422500D03*
X135890000Y-75882500D03*
%TD*%
D10*
%TO.C,MX28*%
X233045000Y-61912500D03*
D11*
X238125000Y-61912500D03*
D10*
X243205000Y-61912500D03*
D12*
X234315000Y-59372500D03*
X240665000Y-56832500D03*
%TD*%
D10*
%TO.C,MX3*%
X85407500Y-38100000D03*
D11*
X90487500Y-38100000D03*
D10*
X95567500Y-38100000D03*
D12*
X86677500Y-35560000D03*
X93027500Y-33020000D03*
%TD*%
D16*
%TO.C,REF\u002A\u002A*%
X219068750Y-145097500D03*
D17*
X219068750Y-129887500D03*
D16*
X119068750Y-145097500D03*
D17*
X119068750Y-129887500D03*
%TD*%
D10*
%TO.C,MX67*%
X85407500Y-119062500D03*
D11*
X90487500Y-119062500D03*
D10*
X95567500Y-119062500D03*
D12*
X86677500Y-116522500D03*
X93027500Y-113982500D03*
%TD*%
D16*
%TO.C,REF\u002A\u002A*%
X47593250Y-112077500D03*
D17*
X47593250Y-127287500D03*
D16*
X71469250Y-112077500D03*
D17*
X71469250Y-127287500D03*
%TD*%
D10*
%TO.C,MX44*%
X204470000Y-80962500D03*
D11*
X209550000Y-80962500D03*
D10*
X214630000Y-80962500D03*
D12*
X205740000Y-78422500D03*
X212090000Y-75882500D03*
%TD*%
D14*
%TO.C,D93*%
X51276250Y-105092500D03*
X53498750Y-105092500D03*
D15*
X48736250Y-105092500D03*
X56038750Y-105092500D03*
%TD*%
D10*
%TO.C,MX14*%
X309245000Y-38100000D03*
D11*
X314325000Y-38100000D03*
D10*
X319405000Y-38100000D03*
D12*
X310515000Y-35560000D03*
X316865000Y-33020000D03*
%TD*%
D10*
%TO.C,MX37*%
X71120000Y-80962500D03*
D11*
X76200000Y-80962500D03*
D10*
X81280000Y-80962500D03*
D12*
X72390000Y-78422500D03*
X78740000Y-75882500D03*
%TD*%
D10*
%TO.C,MX66*%
X54451250Y-119062500D03*
D11*
X59531250Y-119062500D03*
D10*
X64611250Y-119062500D03*
D12*
X55721250Y-116522500D03*
X62071250Y-113982500D03*
%TD*%
D10*
%TO.C,MX9*%
X204470000Y-38100000D03*
D11*
X209550000Y-38100000D03*
D10*
X214630000Y-38100000D03*
D12*
X205740000Y-35560000D03*
X212090000Y-33020000D03*
%TD*%
D10*
%TO.C,MX6*%
X147320000Y-38100000D03*
D11*
X152400000Y-38100000D03*
D10*
X157480000Y-38100000D03*
D12*
X148590000Y-35560000D03*
X154940000Y-33020000D03*
%TD*%
D16*
%TO.C,REF\u002A\u002A*%
X292862000Y-54927500D03*
D17*
X292862000Y-70137500D03*
D16*
X316738000Y-54927500D03*
D17*
X316738000Y-70137500D03*
%TD*%
D10*
%TO.C,MX71*%
X161607500Y-119062500D03*
D11*
X166687500Y-119062500D03*
D10*
X171767500Y-119062500D03*
D12*
X162877500Y-116522500D03*
X169227500Y-113982500D03*
%TD*%
D10*
%TO.C,MX46*%
X242570000Y-80962500D03*
D11*
X247650000Y-80962500D03*
D10*
X252730000Y-80962500D03*
D12*
X243840000Y-78422500D03*
X250190000Y-75882500D03*
%TD*%
D10*
%TO.C,MX72*%
X180657500Y-119062500D03*
D11*
X185737500Y-119062500D03*
D10*
X190817500Y-119062500D03*
D12*
X181927500Y-116522500D03*
X188277500Y-113982500D03*
%TD*%
D10*
%TO.C,MX39*%
X109220000Y-80962500D03*
D11*
X114300000Y-80962500D03*
D10*
X119380000Y-80962500D03*
D12*
X110490000Y-78422500D03*
X116840000Y-75882500D03*
%TD*%
D10*
%TO.C,MX12*%
X266382500Y-38100000D03*
D11*
X271462500Y-38100000D03*
D10*
X276542500Y-38100000D03*
D12*
X267652500Y-35560000D03*
X274002500Y-33020000D03*
%TD*%
D10*
%TO.C,MX43*%
X185420000Y-80962500D03*
D11*
X190500000Y-80962500D03*
D10*
X195580000Y-80962500D03*
D12*
X186690000Y-78422500D03*
X193040000Y-75882500D03*
%TD*%
D10*
%TO.C,MX10*%
X228282500Y-38100000D03*
D11*
X233362500Y-38100000D03*
D10*
X238442500Y-38100000D03*
D12*
X229552500Y-35560000D03*
X235902500Y-33020000D03*
%TD*%
D10*
%TO.C,MX51*%
X352107500Y-80962500D03*
D11*
X357187500Y-80962500D03*
D10*
X362267500Y-80962500D03*
D12*
X353377500Y-78422500D03*
X359727500Y-75882500D03*
%TD*%
D10*
%TO.C,MX38*%
X90170000Y-80962500D03*
D11*
X95250000Y-80962500D03*
D10*
X100330000Y-80962500D03*
D12*
X91440000Y-78422500D03*
X97790000Y-75882500D03*
%TD*%
D18*
%TO.C,C16*%
X146442500Y-133280000D03*
X146442500Y-132320000D03*
%TD*%
D19*
%TO.C,D75*%
X247832500Y-124712500D03*
X247832500Y-121412500D03*
%TD*%
%TO.C,D32*%
X319270000Y-67562500D03*
X319270000Y-64262500D03*
%TD*%
D20*
%TO.C,C5*%
X146525000Y-140250000D03*
X145565000Y-140250000D03*
%TD*%
D19*
%TO.C,D69*%
X133532500Y-124712500D03*
X133532500Y-121412500D03*
%TD*%
D21*
%TO.C,C10*%
X133134411Y-141185589D03*
X132455589Y-141864411D03*
%TD*%
D19*
%TO.C,D70*%
X152582500Y-124712500D03*
X152582500Y-121412500D03*
%TD*%
%TO.C,D16*%
X362132500Y-43750000D03*
X362132500Y-40450000D03*
%TD*%
%TO.C,D38*%
X100195000Y-86612500D03*
X100195000Y-83312500D03*
%TD*%
%TO.C,D67*%
X95432500Y-124712500D03*
X95432500Y-121412500D03*
%TD*%
%TO.C,D76*%
X266882500Y-124712500D03*
X266882500Y-121412500D03*
%TD*%
D22*
%TO.C,R5*%
X53220000Y-109120000D03*
X53220000Y-110080000D03*
%TD*%
D19*
%TO.C,D21*%
X109720000Y-67562500D03*
X109720000Y-64262500D03*
%TD*%
%TO.C,D89*%
X362132500Y-143762500D03*
X362132500Y-140462500D03*
%TD*%
%TO.C,D85*%
X269263750Y-143762500D03*
X269263750Y-140462500D03*
%TD*%
%TO.C,D37*%
X81145000Y-86612500D03*
X81145000Y-83312500D03*
%TD*%
%TO.C,D35*%
X381182500Y-67562500D03*
X381182500Y-64262500D03*
%TD*%
%TO.C,D53*%
X59713750Y-105662500D03*
X59713750Y-102362500D03*
%TD*%
%TO.C,D10*%
X238307500Y-43750000D03*
X238307500Y-40450000D03*
%TD*%
D20*
%TO.C,R8*%
X353520000Y-42765000D03*
X352560000Y-42765000D03*
%TD*%
D19*
%TO.C,D39*%
X119245000Y-86612500D03*
X119245000Y-83312500D03*
%TD*%
%TO.C,D59*%
X181157500Y-105662500D03*
X181157500Y-102362500D03*
%TD*%
%TO.C,D12*%
X276407500Y-43750000D03*
X276407500Y-40450000D03*
%TD*%
%TO.C,D84*%
X245451250Y-143762500D03*
X245451250Y-140462500D03*
%TD*%
%TO.C,D2*%
X76382500Y-43750000D03*
X76382500Y-40450000D03*
%TD*%
D18*
%TO.C,R4*%
X120370000Y-142030000D03*
X120370000Y-141070000D03*
%TD*%
D19*
%TO.C,D47*%
X271645000Y-86612500D03*
X271645000Y-83312500D03*
%TD*%
%TO.C,D9*%
X214495000Y-43750000D03*
X214495000Y-40450000D03*
%TD*%
D18*
%TO.C,C2*%
X139820000Y-145355000D03*
X139820000Y-144395000D03*
%TD*%
D19*
%TO.C,D64*%
X276407500Y-105662500D03*
X276407500Y-102362500D03*
%TD*%
D23*
%TO.C,Y1*%
X149970000Y-133075000D03*
X147820000Y-133075000D03*
X147820000Y-131525000D03*
X149970000Y-131525000D03*
%TD*%
D19*
%TO.C,D4*%
X114482500Y-43750000D03*
X114482500Y-40450000D03*
%TD*%
%TO.C,D44*%
X214495000Y-86612500D03*
X214495000Y-83312500D03*
%TD*%
%TO.C,D86*%
X293076250Y-143762500D03*
X293076250Y-140462500D03*
%TD*%
D22*
%TO.C,R6*%
X145412500Y-132320000D03*
X145412500Y-133280000D03*
%TD*%
D18*
%TO.C,R3*%
X121420000Y-142030000D03*
X121420000Y-141070000D03*
%TD*%
D21*
%TO.C,C12*%
X137309411Y-143360589D03*
X136630589Y-144039411D03*
%TD*%
D19*
%TO.C,D90*%
X381182500Y-143762500D03*
X381182500Y-140462500D03*
%TD*%
D24*
%TO.C,C1*%
X137980589Y-145389411D03*
X138659411Y-144710589D03*
%TD*%
D19*
%TO.C,D3*%
X95432500Y-43750000D03*
X95432500Y-40450000D03*
%TD*%
%TO.C,D6*%
X157345000Y-43750000D03*
X157345000Y-40450000D03*
%TD*%
%TO.C,D19*%
X71620000Y-67562500D03*
X71620000Y-64262500D03*
%TD*%
%TO.C,D48*%
X290695000Y-86612500D03*
X290695000Y-83312500D03*
%TD*%
%TO.C,D83*%
X173995000Y-145100000D03*
X173995000Y-141800000D03*
%TD*%
%TO.C,D28*%
X243070000Y-67562500D03*
X243070000Y-64262500D03*
%TD*%
%TO.C,D20*%
X90670000Y-67562500D03*
X90670000Y-64262500D03*
%TD*%
D22*
%TO.C,C15*%
X151370000Y-132320000D03*
X151370000Y-133280000D03*
%TD*%
D21*
%TO.C,C6*%
X144459411Y-133960589D03*
X143780589Y-134639411D03*
%TD*%
D19*
%TO.C,D43*%
X195445000Y-86612500D03*
X195445000Y-83312500D03*
%TD*%
D25*
%TO.C,R1*%
X131045000Y-145250000D03*
X129495000Y-145250000D03*
%TD*%
D19*
%TO.C,D26*%
X204970000Y-67562500D03*
X204970000Y-64262500D03*
%TD*%
%TO.C,D57*%
X143057500Y-105662500D03*
X143057500Y-102362500D03*
%TD*%
%TO.C,D60*%
X200207500Y-105662500D03*
X200207500Y-102362500D03*
%TD*%
%TO.C,D51*%
X362132500Y-86612500D03*
X362132500Y-83312500D03*
%TD*%
D26*
%TO.C,U1*%
X71820000Y-50887500D03*
X69920000Y-50887500D03*
X70870000Y-49012499D03*
%TD*%
D19*
%TO.C,D54*%
X85907500Y-105662500D03*
X85907500Y-102362500D03*
%TD*%
%TO.C,D11*%
X257357500Y-43750000D03*
X257357500Y-40450000D03*
%TD*%
%TO.C,D30*%
X281170000Y-67562500D03*
X281170000Y-64262500D03*
%TD*%
%TO.C,D79*%
X362132500Y-124712500D03*
X362132500Y-121412500D03*
%TD*%
%TO.C,D46*%
X252595000Y-86612500D03*
X252595000Y-83312500D03*
%TD*%
%TO.C,D27*%
X224020000Y-67562500D03*
X224020000Y-64262500D03*
%TD*%
%TO.C,D87*%
X316888750Y-143762500D03*
X316888750Y-140462500D03*
%TD*%
%TO.C,D66*%
X64476250Y-124712500D03*
X64476250Y-121412500D03*
%TD*%
%TO.C,D41*%
X157345000Y-86612500D03*
X157345000Y-83312500D03*
%TD*%
%TO.C,D74*%
X228782500Y-124712500D03*
X228782500Y-121412500D03*
%TD*%
%TO.C,D52*%
X381182500Y-86612500D03*
X381182500Y-83312500D03*
%TD*%
D18*
%TO.C,C8*%
X122470000Y-142030000D03*
X122470000Y-141070000D03*
%TD*%
D19*
%TO.C,D65*%
X307363750Y-105662500D03*
X307363750Y-102362500D03*
%TD*%
D27*
%TO.C,C17*%
X133730589Y-135985589D03*
X134409411Y-136664411D03*
%TD*%
D19*
%TO.C,D24*%
X166870000Y-67562500D03*
X166870000Y-64262500D03*
%TD*%
%TO.C,D88*%
X343082500Y-143762500D03*
X343082500Y-140462500D03*
%TD*%
%TO.C,D13*%
X295457500Y-43750000D03*
X295457500Y-40450000D03*
%TD*%
%TO.C,D45*%
X233545000Y-86612500D03*
X233545000Y-83312500D03*
%TD*%
%TO.C,D58*%
X162107500Y-105662500D03*
X162107500Y-102362500D03*
%TD*%
%TO.C,D77*%
X293076250Y-124712500D03*
X293076250Y-121412500D03*
%TD*%
%TO.C,D81*%
X78763750Y-143762500D03*
X78763750Y-140462500D03*
%TD*%
%TO.C,D33*%
X343082500Y-67562500D03*
X343082500Y-64262500D03*
%TD*%
D21*
%TO.C,C9*%
X137984411Y-144035589D03*
X137305589Y-144714411D03*
%TD*%
D22*
%TO.C,C7*%
X136745000Y-132220000D03*
X136745000Y-133180000D03*
%TD*%
D19*
%TO.C,D80*%
X54951250Y-143762500D03*
X54951250Y-140462500D03*
%TD*%
%TO.C,D61*%
X219257500Y-105662500D03*
X219257500Y-102362500D03*
%TD*%
%TO.C,D34*%
X362132500Y-67562500D03*
X362132500Y-64262500D03*
%TD*%
D28*
%TO.C,U4*%
X73625001Y-48712500D03*
X74575000Y-48712500D03*
X75524999Y-48712500D03*
X75524999Y-50987500D03*
X74575000Y-50987500D03*
X73625001Y-50987500D03*
%TD*%
D19*
%TO.C,D25*%
X185920000Y-67562500D03*
X185920000Y-64262500D03*
%TD*%
%TO.C,D82*%
X102576250Y-143762500D03*
X102576250Y-140462500D03*
%TD*%
%TO.C,D42*%
X176395000Y-86612500D03*
X176395000Y-83312500D03*
%TD*%
%TO.C,D5*%
X133532500Y-43750000D03*
X133532500Y-40450000D03*
%TD*%
%TO.C,D15*%
X343082500Y-43750000D03*
X343082500Y-40450000D03*
%TD*%
D29*
%TO.C,J1*%
X328231250Y-51506250D03*
X328231250Y-50506250D03*
X328231250Y-49506250D03*
X328231250Y-48506250D03*
D30*
X324356250Y-52806250D03*
X324356250Y-47206250D03*
%TD*%
D19*
%TO.C,D72*%
X190682500Y-124712500D03*
X190682500Y-121412500D03*
%TD*%
D22*
%TO.C,C14*%
X68325000Y-50895000D03*
X68325000Y-51855000D03*
%TD*%
D19*
%TO.C,D7*%
X176395000Y-43750000D03*
X176395000Y-40450000D03*
%TD*%
%TO.C,D71*%
X171632500Y-124712500D03*
X171632500Y-121412500D03*
%TD*%
D24*
%TO.C,C11*%
X144455589Y-135314411D03*
X145134411Y-134635589D03*
%TD*%
D19*
%TO.C,D29*%
X262120000Y-67562500D03*
X262120000Y-64262500D03*
%TD*%
%TO.C,D8*%
X195445000Y-43750000D03*
X195445000Y-40450000D03*
%TD*%
%TO.C,D17*%
X381182500Y-43750000D03*
X381182500Y-40450000D03*
%TD*%
%TO.C,D14*%
X319270000Y-43750000D03*
X319270000Y-40450000D03*
%TD*%
%TO.C,D56*%
X124007500Y-105662500D03*
X124007500Y-102362500D03*
%TD*%
%TO.C,D31*%
X300220000Y-67562500D03*
X300220000Y-64262500D03*
%TD*%
%TO.C,D49*%
X314507500Y-86612500D03*
X314507500Y-83312500D03*
%TD*%
D25*
%TO.C,R2*%
X134045000Y-145250000D03*
X132495000Y-145250000D03*
%TD*%
D19*
%TO.C,D78*%
X319270000Y-124712500D03*
X319270000Y-121412500D03*
%TD*%
%TO.C,D18*%
X52570000Y-67562500D03*
X52570000Y-64262500D03*
%TD*%
%TO.C,D50*%
X343082500Y-86612500D03*
X343082500Y-83312500D03*
%TD*%
%TO.C,D36*%
X57332500Y-86612500D03*
X57332500Y-83312500D03*
%TD*%
%TO.C,D23*%
X147820000Y-67562500D03*
X147820000Y-64262500D03*
%TD*%
%TO.C,D22*%
X128770000Y-67562500D03*
X128770000Y-64262500D03*
%TD*%
D31*
%TO.C,U2*%
X124265000Y-134275000D03*
X125535000Y-134275000D03*
X126805000Y-134275000D03*
X128075000Y-134275000D03*
X128075000Y-141475000D03*
X126805000Y-141475000D03*
X125535000Y-141475000D03*
X124265000Y-141475000D03*
%TD*%
D19*
%TO.C,D55*%
X104957500Y-105662500D03*
X104957500Y-102362500D03*
%TD*%
D32*
%TO.C,BOOTSEL1*%
X118693750Y-135617501D03*
X112693750Y-135617501D03*
X118693750Y-139367501D03*
X112693750Y-139367501D03*
%TD*%
D33*
%TO.C,U3*%
X135522721Y-137432798D03*
X135805564Y-137149955D03*
X136088406Y-136867113D03*
X136371249Y-136584270D03*
X136654092Y-136301427D03*
X136936934Y-136018585D03*
X137219777Y-135735742D03*
X137502620Y-135452899D03*
X137785463Y-135170056D03*
X138068305Y-134887214D03*
X138351148Y-134604371D03*
X138633991Y-134321528D03*
X138916833Y-134038686D03*
X139199676Y-133755843D03*
D34*
X140384080Y-133755843D03*
X140666923Y-134038686D03*
X140949765Y-134321528D03*
X141232608Y-134604371D03*
X141515451Y-134887214D03*
X141798293Y-135170056D03*
X142081136Y-135452899D03*
X142363979Y-135735742D03*
X142646822Y-136018585D03*
X142929664Y-136301427D03*
X143212507Y-136584270D03*
X143495350Y-136867113D03*
X143778192Y-137149955D03*
X144061035Y-137432798D03*
D33*
X144061035Y-138617202D03*
X143778192Y-138900045D03*
X143495350Y-139182887D03*
X143212507Y-139465730D03*
X142929664Y-139748573D03*
X142646822Y-140031415D03*
X142363979Y-140314258D03*
X142081136Y-140597101D03*
X141798293Y-140879944D03*
X141515451Y-141162786D03*
X141232608Y-141445629D03*
X140949765Y-141728472D03*
X140666923Y-142011314D03*
X140384080Y-142294157D03*
D34*
X139199676Y-142294157D03*
X138916833Y-142011314D03*
X138633991Y-141728472D03*
X138351148Y-141445629D03*
X138068305Y-141162786D03*
X137785463Y-140879944D03*
X137502620Y-140597101D03*
X137219777Y-140314258D03*
X136936934Y-140031415D03*
X136654092Y-139748573D03*
X136371249Y-139465730D03*
X136088406Y-139182887D03*
X135805564Y-138900045D03*
X135522721Y-138617202D03*
D35*
X139791878Y-138025000D03*
%TD*%
D19*
%TO.C,D1*%
X52570000Y-43750000D03*
X52570000Y-40450000D03*
%TD*%
%TO.C,D62*%
X238307500Y-105662500D03*
X238307500Y-102362500D03*
%TD*%
%TO.C,D73*%
X209732500Y-124712500D03*
X209732500Y-121412500D03*
%TD*%
D24*
%TO.C,C3*%
X133799093Y-143207915D03*
X134477915Y-142529093D03*
%TD*%
D19*
%TO.C,D68*%
X114482500Y-124712500D03*
X114482500Y-121412500D03*
%TD*%
D20*
%TO.C,C13*%
X70855000Y-47425000D03*
X69895000Y-47425000D03*
%TD*%
D24*
%TO.C,C4*%
X133127342Y-142536164D03*
X133806164Y-141857342D03*
%TD*%
D19*
%TO.C,D40*%
X138295000Y-86612500D03*
X138295000Y-83312500D03*
%TD*%
%TO.C,D63*%
X257357500Y-105662500D03*
X257357500Y-102362500D03*
%TD*%
M02*
