M48
; DRILL file {KiCad 8.0.1} date 2025-12-31T00:35:06+0900
; FORMAT={-:-/ absolute / metric / decimal}
; #@! TF.CreationDate,2025-12-31T00:35:06+09:00
; #@! TF.GenerationSoftware,Kicad,Pcbnew,8.0.1
; #@! TF.FileFunction,Plated,1,2,PTH
FMAT,2
METRIC
; #@! TA.AperFunction,Plated,PTH,ViaDrill
T1C0.300
; #@! TA.AperFunction,Plated,PTH,ComponentDrill
T2C0.350
; #@! TA.AperFunction,Plated,PTH,ComponentDrill
T3C0.991
; #@! TA.AperFunction,Plated,PTH,ComponentDrill
T4C1.800
%
G90
G05
T1
X52.445Y-46.25
X52.595Y-69.925
X55.079Y-128.025
X57.245Y-89.1
X61.57Y-108.6
X64.495Y-127.15
X69.92Y-50.887
X71.695Y-70.025
X71.895Y-108.475
X75.525Y-48.712
X75.525Y-50.987
X76.456Y-130.461
X77.5Y-55.75
X80.312Y-69.183
X80.445Y-64.2
X80.5Y-53.5
X81.095Y-89.1
X81.87Y-64.2
X81.945Y-69.225
X86.92Y-108.225
X90.02Y-84.475
X90.595Y-46.25
X90.845Y-69.825
X91.57Y-84.475
X91.57Y-97.125
X95.37Y-127.175
X100.17Y-89.1
X100.662Y-130.067
X105.02Y-108.175
X105.086Y-125.643
X107.045Y-126.65
X107.045Y-128.825
X109.67Y-46.2
X109.795Y-69.975
X112.92Y-126.65
X112.92Y-128.825
X119.195Y-89.025
X119.57Y-137.875
X120.095Y-136.925
X121.4Y-143.885
X121.42Y-142.03
X123.795Y-108.15
X124.295Y-136.825
X124.95Y-125.744
X125.337Y-43.75
X126.945Y-129.975
X126.97Y-131.3
X127.395Y-136.825
X127.7Y-144.405
X128.67Y-46.15
X128.82Y-69.925
X129.545Y-126.3
X130.62Y-127.875
X130.73Y-67.562
X130.895Y-135.075
X130.92Y-136.625
X131.02Y-145.25
X132.42Y-135.075
X132.445Y-136.625
X132.495Y-145.25
X133.806Y-141.857
X134.02Y-127.85
X134.27Y-126.3
X136.745Y-132.225
X137.07Y-129.875
X137.295Y-144.725
X137.97Y-145.4
X138.003Y-139.803
X138.27Y-89.125
X138.964Y-140.733
X139.82Y-145.375
X139.845Y-132.45
X140.655Y-86.612
X140.745Y-131.375
X141.53Y-143.365
X141.845Y-139.511
X141.895Y-130.15
X142.455Y-137.142
X142.87Y-108.025
X143.295Y-125.825
X144.47Y-133.95
X145.895Y-125.85
X146.045Y-105.662
X146.33Y-145.1
X146.525Y-140.25
X146.57Y-138.1
X147.695Y-70.0
X147.77Y-46.25
X148.07Y-134.75
X148.42Y-125.85
X149.145Y-122.775
X150.245Y-134.75
X150.97Y-125.85
X151.97Y-138.1
X152.47Y-134.75
X156.82Y-136.675
X157.17Y-89.1
X159.545Y-129.45
X159.695Y-135.95
X160.495Y-135.95
X161.295Y-135.95
X161.945Y-108.1
X162.07Y-124.712
X162.095Y-135.95
X162.745Y-126.525
X162.895Y-135.95
X164.137Y-126.35
X166.945Y-70.0
X176.37Y-89.1
X176.47Y-46.125
X181.095Y-108.075
X181.845Y-125.512
X185.995Y-70.05
X188.67Y-133.95
X188.67Y-143.95
X195.545Y-46.075
X195.57Y-89.1
X198.67Y-133.95
X198.67Y-143.95
X200.245Y-108.075
X200.657Y-125.737
X204.845Y-70.075
X208.67Y-133.95
X208.67Y-143.95
X214.445Y-89.075
X214.495Y-46.375
X216.22Y-128.575
X219.17Y-108.15
X219.39Y-125.744
X221.845Y-128.575
X224.02Y-69.95
X228.07Y-137.975
X233.495Y-46.125
X233.495Y-89.175
X238.27Y-108.1
X239.232Y-126.144
X242.995Y-70.075
X251.27Y-138.0
X252.47Y-89.0
X256.82Y-127.55
X257.395Y-108.15
X259.318Y-129.975
X262.02Y-69.925
X262.12Y-46.05
X265.07Y-127.55
X271.545Y-88.9
X272.82Y-127.55
X275.07Y-138.05
X276.47Y-108.075
X281.145Y-69.975
X281.17Y-46.1
X281.37Y-127.55
X283.174Y-128.341
X290.62Y-89.075
X294.695Y-126.475
X294.695Y-128.375
X298.945Y-138.05
X300.07Y-46.2
X300.27Y-70.075
X304.695Y-126.475
X304.695Y-128.375
X306.02Y-65.05
X306.17Y-145.325
X307.345Y-108.125
X312.138Y-128.341
X314.42Y-89.0
X317.02Y-145.325
X319.22Y-46.3
X319.92Y-70.1
X321.389Y-129.025
X321.795Y-129.75
X324.845Y-138.025
X328.12Y-145.325
X329.145Y-89.645
X330.47Y-107.9
X332.795Y-45.875
X333.02Y-70.0
X333.07Y-51.8
X334.482Y-130.225
X339.695Y-145.325
X342.97Y-46.1
X342.995Y-70.025
X353.532Y-130.7
X361.595Y-145.325
X362.17Y-46.15
X362.195Y-70.05
X380.395Y-108.075
X381.245Y-88.975
X381.27Y-70.075
X381.295Y-46.25
T2
X137.989Y-138.025
X138.89Y-137.123
X138.89Y-138.927
X139.792Y-136.222
X139.792Y-138.025
X139.792Y-139.828
X140.693Y-137.123
X140.693Y-138.927
X141.595Y-138.025
T3
X48.736Y-105.093
X51.276Y-105.093
X53.499Y-105.093
X56.039Y-105.093
X355.917Y-43.18
X358.457Y-43.18
T4
X43.815Y-35.56
X43.815Y-59.372
X46.196Y-97.472
X46.196Y-135.572
X48.578Y-78.422
X48.578Y-135.572
X50.165Y-33.02
X50.165Y-56.832
X50.959Y-97.472
X52.546Y-94.932
X52.546Y-133.032
X54.927Y-75.882
X54.927Y-133.032
X55.721Y-116.522
X57.309Y-94.932
X62.071Y-113.983
X62.865Y-59.372
X67.627Y-35.56
X69.215Y-56.832
X70.009Y-135.572
X72.39Y-78.422
X72.39Y-135.572
X73.977Y-33.02
X76.359Y-133.032
X77.153Y-97.472
X78.74Y-75.882
X78.74Y-133.032
X81.915Y-59.372
X83.502Y-94.932
X86.677Y-35.56
X86.677Y-116.522
X88.265Y-56.832
X91.44Y-78.422
X93.027Y-33.02
X93.027Y-113.983
X93.821Y-135.572
X96.203Y-97.472
X96.203Y-135.572
X97.79Y-75.882
X100.171Y-133.032
X100.965Y-59.372
X102.552Y-94.932
X102.552Y-133.032
X105.727Y-35.56
X105.727Y-116.522
X107.315Y-56.832
X110.49Y-78.422
X112.078Y-33.02
X112.078Y-113.983
X115.252Y-97.472
X116.84Y-75.882
X120.015Y-59.372
X121.602Y-94.932
X124.777Y-35.56
X124.777Y-116.522
X126.365Y-56.832
X129.54Y-78.422
X131.127Y-33.02
X131.127Y-113.983
X134.302Y-97.472
X135.89Y-75.882
X139.065Y-59.372
X140.653Y-94.932
X143.827Y-116.522
X145.415Y-56.832
X148.59Y-35.56
X148.59Y-78.422
X150.177Y-113.983
X153.352Y-97.472
X154.94Y-33.02
X154.94Y-75.882
X158.115Y-59.372
X159.702Y-94.932
X162.877Y-116.522
X164.465Y-56.832
X165.259Y-135.572
X167.64Y-35.56
X167.64Y-78.422
X169.227Y-113.983
X171.609Y-133.032
X172.403Y-97.472
X173.99Y-33.02
X173.99Y-75.882
X177.165Y-59.372
X177.165Y-135.572
X178.752Y-94.932
X181.927Y-116.522
X183.515Y-56.832
X183.515Y-133.032
X186.69Y-35.56
X186.69Y-78.422
X188.278Y-113.983
X191.452Y-97.472
X193.04Y-33.02
X193.04Y-75.882
X196.215Y-59.372
X197.802Y-94.932
X200.977Y-116.522
X202.565Y-56.832
X205.74Y-35.56
X205.74Y-78.422
X207.327Y-113.983
X210.502Y-97.472
X212.09Y-33.02
X212.09Y-75.882
X215.265Y-59.372
X216.852Y-94.932
X220.028Y-116.522
X221.615Y-56.832
X224.79Y-78.422
X226.377Y-113.983
X229.552Y-35.56
X229.552Y-97.472
X231.14Y-75.882
X234.315Y-59.372
X235.903Y-33.02
X235.903Y-94.932
X236.696Y-135.572
X239.077Y-116.522
X240.665Y-56.832
X243.046Y-133.032
X243.84Y-78.422
X245.427Y-113.983
X248.602Y-35.56
X248.602Y-97.472
X250.19Y-75.882
X253.365Y-59.372
X254.952Y-33.02
X254.952Y-94.932
X258.127Y-116.522
X258.127Y-135.572
X259.715Y-56.832
X260.509Y-135.572
X262.89Y-78.422
X264.477Y-113.983
X264.477Y-133.032
X266.859Y-133.032
X267.652Y-35.56
X267.652Y-97.472
X269.24Y-75.882
X272.415Y-59.372
X274.002Y-33.02
X274.002Y-94.932
X278.765Y-56.832
X281.94Y-78.422
X281.94Y-135.572
X284.321Y-116.522
X284.321Y-135.572
X286.702Y-35.56
X288.29Y-75.882
X288.29Y-133.032
X290.671Y-113.983
X290.671Y-133.032
X291.465Y-59.372
X293.053Y-33.02
X293.846Y-116.522
X297.815Y-56.832
X298.609Y-97.472
X300.196Y-113.983
X300.99Y-59.372
X304.959Y-94.932
X305.752Y-78.422
X305.752Y-135.572
X307.34Y-56.832
X308.134Y-135.572
X310.515Y-35.56
X310.515Y-59.372
X310.515Y-116.522
X312.102Y-75.882
X312.102Y-133.032
X314.484Y-133.032
X316.865Y-33.02
X316.865Y-56.832
X316.865Y-113.983
X334.327Y-35.56
X334.327Y-59.372
X334.327Y-78.422
X334.327Y-135.572
X340.678Y-33.02
X340.678Y-56.832
X340.678Y-75.882
X340.678Y-133.032
X353.377Y-35.56
X353.377Y-59.372
X353.377Y-78.422
X353.377Y-116.522
X353.377Y-135.572
X359.727Y-33.02
X359.727Y-56.832
X359.727Y-75.882
X359.727Y-113.983
X359.727Y-133.032
X372.428Y-35.56
X372.428Y-59.372
X372.428Y-78.422
X372.428Y-135.572
X378.777Y-33.02
X378.777Y-56.832
X378.777Y-75.882
X378.777Y-133.032
M30
