%TF.GenerationSoftware,KiCad,Pcbnew,8.0.1*%
%TF.CreationDate,2025-12-30T16:32:45+09:00*%
%TF.ProjectId,rubrejaneTKL_RP2040_Piano,72756272-656a-4616-9e65-544b4c5f5250,rev?*%
%TF.SameCoordinates,Original*%
%TF.FileFunction,Soldermask,Top*%
%TF.FilePolarity,Negative*%
%FSLAX46Y46*%
G04 Gerber Fmt 4.6, Leading zero omitted, Abs format (unit mm)*
G04 Created by KiCad (PCBNEW 8.0.1) date 2025-12-30 16:32:45*
%MOMM*%
%LPD*%
G01*
G04 APERTURE LIST*
%ADD10C,1.700000*%
%ADD11C,4.000000*%
%ADD12C,2.500000*%
%ADD13C,5.000000*%
%ADD14C,1.690600*%
%ADD15R,1.690600X1.690600*%
%ADD16C,3.048000*%
%ADD17C,3.987800*%
G04 APERTURE END LIST*
D10*
%TO.C,MX21*%
X146275000Y-108787500D03*
D11*
X151355000Y-108787500D03*
D10*
X156435000Y-108787500D03*
D12*
X147545000Y-106247500D03*
X153895000Y-103707500D03*
%TD*%
D10*
%TO.C,MX82*%
X191518750Y-184987500D03*
D11*
X196598750Y-184987500D03*
D10*
X201678750Y-184987500D03*
X203425000Y-184987500D03*
D11*
X208505000Y-184987500D03*
D10*
X213585000Y-184987500D03*
D12*
X192788750Y-182447500D03*
X204695000Y-182447500D03*
X199138750Y-179907500D03*
X211045000Y-179907500D03*
%TD*%
D10*
%TO.C,MX69*%
X170087500Y-165937500D03*
D11*
X175167500Y-165937500D03*
D10*
X180247500Y-165937500D03*
D12*
X171357500Y-163397500D03*
X177707500Y-160857500D03*
%TD*%
D10*
%TO.C,MX8*%
X232000000Y-84975000D03*
D11*
X237080000Y-84975000D03*
D10*
X242160000Y-84975000D03*
D12*
X233270000Y-82435000D03*
X239620000Y-79895000D03*
%TD*%
D13*
%TO.C,REF\u002A\u002A*%
X184692500Y-173937500D03*
%TD*%
D14*
%TO.C,D94*%
X383447500Y-90055000D03*
D15*
X385987500Y-90055000D03*
%TD*%
D10*
%TO.C,MX47*%
X308200000Y-127837500D03*
D11*
X313280000Y-127837500D03*
D10*
X318360000Y-127837500D03*
D12*
X309470000Y-125297500D03*
X315820000Y-122757500D03*
%TD*%
D10*
%TO.C,MX75*%
X284387500Y-165937500D03*
D11*
X289467500Y-165937500D03*
D10*
X294547500Y-165937500D03*
D12*
X285657500Y-163397500D03*
X292007500Y-160857500D03*
%TD*%
D10*
%TO.C,MX81*%
X120081250Y-184987500D03*
X122462500Y-184987500D03*
D11*
X125161250Y-184987500D03*
X127542500Y-184987500D03*
D10*
X130241250Y-184987500D03*
X132622500Y-184987500D03*
D12*
X121351250Y-182447500D03*
X123732500Y-182447500D03*
X127701250Y-179907500D03*
X130082500Y-179907500D03*
%TD*%
D10*
%TO.C,MX12*%
X317725000Y-84975000D03*
D11*
X322805000Y-84975000D03*
D10*
X327885000Y-84975000D03*
D12*
X318995000Y-82435000D03*
X325345000Y-79895000D03*
%TD*%
D10*
%TO.C,MX35*%
X74837500Y-127837500D03*
D11*
X79917500Y-127837500D03*
D10*
X84997500Y-127837500D03*
D12*
X76107500Y-125297500D03*
X82457500Y-122757500D03*
%TD*%
D10*
%TO.C,MX56*%
X160562500Y-146887500D03*
D11*
X165642500Y-146887500D03*
D10*
X170722500Y-146887500D03*
D12*
X161832500Y-144347500D03*
X168182500Y-141807500D03*
%TD*%
D10*
%TO.C,MX85*%
X308200000Y-184987500D03*
X310581250Y-184987500D03*
D11*
X313280000Y-184987500D03*
X315661250Y-184987500D03*
D10*
X318360000Y-184987500D03*
X320741250Y-184987500D03*
D12*
X309470000Y-182447500D03*
X311851250Y-182447500D03*
X315820000Y-179907500D03*
X318201250Y-179907500D03*
%TD*%
D10*
%TO.C,MX73*%
X246287500Y-165937500D03*
D11*
X251367500Y-165937500D03*
D10*
X256447500Y-165937500D03*
D12*
X247557500Y-163397500D03*
X253907500Y-160857500D03*
%TD*%
D10*
%TO.C,MX74*%
X265337500Y-165937500D03*
D11*
X270417500Y-165937500D03*
D10*
X275497500Y-165937500D03*
D12*
X266607500Y-163397500D03*
X272957500Y-160857500D03*
%TD*%
D10*
%TO.C,MX1*%
X70075000Y-84975000D03*
D11*
X75155000Y-84975000D03*
D10*
X80235000Y-84975000D03*
D12*
X71345000Y-82435000D03*
X77695000Y-79895000D03*
%TD*%
D10*
%TO.C,MX63*%
X293912500Y-146887500D03*
D11*
X298992500Y-146887500D03*
D10*
X304072500Y-146887500D03*
D12*
X295182500Y-144347500D03*
X301532500Y-141807500D03*
%TD*%
D10*
%TO.C,MX44*%
X251050000Y-127837500D03*
D11*
X256130000Y-127837500D03*
D10*
X261210000Y-127837500D03*
D12*
X252320000Y-125297500D03*
X258670000Y-122757500D03*
%TD*%
D10*
%TO.C,MX62*%
X274862500Y-146887500D03*
D11*
X279942500Y-146887500D03*
D10*
X285022500Y-146887500D03*
D12*
X276132500Y-144347500D03*
X282482500Y-141807500D03*
%TD*%
D10*
%TO.C,MX18*%
X89125000Y-108787500D03*
D11*
X94205000Y-108787500D03*
D10*
X99285000Y-108787500D03*
D12*
X90395000Y-106247500D03*
X96745000Y-103707500D03*
%TD*%
D10*
%TO.C,MX83*%
X262956250Y-184987500D03*
D11*
X268036250Y-184987500D03*
D10*
X273116250Y-184987500D03*
D12*
X264226250Y-182447500D03*
X270576250Y-179907500D03*
%TD*%
D10*
%TO.C,MX64*%
X324868750Y-146887500D03*
D11*
X329948750Y-146887500D03*
D10*
X335028750Y-146887500D03*
D12*
X326138750Y-144347500D03*
X332488750Y-141807500D03*
%TD*%
D10*
%TO.C,MX52*%
X72456250Y-146887500D03*
X77218750Y-146887500D03*
D11*
X77536250Y-146887500D03*
X82298750Y-146887500D03*
D10*
X82616250Y-146887500D03*
X87378750Y-146887500D03*
D12*
X78488750Y-144347500D03*
X80076250Y-141807500D03*
X73726250Y-144347500D03*
X84838750Y-141807500D03*
%TD*%
D10*
%TO.C,MX25*%
X222475000Y-108787500D03*
D11*
X227555000Y-108787500D03*
D10*
X232635000Y-108787500D03*
D12*
X223745000Y-106247500D03*
X230095000Y-103707500D03*
%TD*%
D10*
%TO.C,MX41*%
X193900000Y-127837500D03*
D11*
X198980000Y-127837500D03*
D10*
X204060000Y-127837500D03*
D12*
X195170000Y-125297500D03*
X201520000Y-122757500D03*
%TD*%
D10*
%TO.C,MX22*%
X165325000Y-108787500D03*
D11*
X170405000Y-108787500D03*
D10*
X175485000Y-108787500D03*
D12*
X166595000Y-106247500D03*
X172945000Y-103707500D03*
%TD*%
D10*
%TO.C,MX60*%
X236762500Y-146887500D03*
D11*
X241842500Y-146887500D03*
D10*
X246922500Y-146887500D03*
D12*
X238032500Y-144347500D03*
X244382500Y-141807500D03*
%TD*%
D10*
%TO.C,MX68*%
X151037500Y-165937500D03*
D11*
X156117500Y-165937500D03*
D10*
X161197500Y-165937500D03*
D12*
X152307500Y-163397500D03*
X158657500Y-160857500D03*
%TD*%
D10*
%TO.C,MX80*%
X96268750Y-184987500D03*
X98650000Y-184987500D03*
D11*
X101348750Y-184987500D03*
X103730000Y-184987500D03*
D10*
X106428750Y-184987500D03*
X108810000Y-184987500D03*
D12*
X97538750Y-182447500D03*
X99920000Y-182447500D03*
X103888750Y-179907500D03*
X106270000Y-179907500D03*
%TD*%
D10*
%TO.C,MX30*%
X317725000Y-108787500D03*
D11*
X322805000Y-108787500D03*
D10*
X327885000Y-108787500D03*
D12*
X318995000Y-106247500D03*
X325345000Y-103707500D03*
%TD*%
D13*
%TO.C,REF\u002A\u002A*%
X279942500Y-173937500D03*
%TD*%
D10*
%TO.C,MX61*%
X255812500Y-146887500D03*
D11*
X260892500Y-146887500D03*
D10*
X265972500Y-146887500D03*
D12*
X257082500Y-144347500D03*
X263432500Y-141807500D03*
%TD*%
D10*
%TO.C,MX54*%
X122462500Y-146887500D03*
D11*
X127542500Y-146887500D03*
D10*
X132622500Y-146887500D03*
D12*
X123732500Y-144347500D03*
X130082500Y-141807500D03*
%TD*%
D10*
%TO.C,MX78*%
X379637500Y-165937500D03*
D11*
X384717500Y-165937500D03*
D10*
X389797500Y-165937500D03*
D12*
X380907500Y-163397500D03*
X387257500Y-160857500D03*
%TD*%
D10*
%TO.C,MX24*%
X203425000Y-108787500D03*
D11*
X208505000Y-108787500D03*
D10*
X213585000Y-108787500D03*
D12*
X204695000Y-106247500D03*
X211045000Y-103707500D03*
%TD*%
D10*
%TO.C,MX51*%
X398687500Y-127837500D03*
D11*
X403767500Y-127837500D03*
D10*
X408847500Y-127837500D03*
D12*
X399957500Y-125297500D03*
X406307500Y-122757500D03*
%TD*%
D10*
%TO.C,MX48*%
X332012500Y-127837500D03*
D11*
X337092500Y-127837500D03*
D10*
X342172500Y-127837500D03*
D12*
X333282500Y-125297500D03*
X339632500Y-122757500D03*
%TD*%
D10*
%TO.C,MX26*%
X241525000Y-108787500D03*
D11*
X246605000Y-108787500D03*
D10*
X251685000Y-108787500D03*
D12*
X242795000Y-106247500D03*
X249145000Y-103707500D03*
%TD*%
D10*
%TO.C,MX17*%
X70075000Y-108787500D03*
D11*
X75155000Y-108787500D03*
D10*
X80235000Y-108787500D03*
D12*
X71345000Y-106247500D03*
X77695000Y-103707500D03*
%TD*%
D10*
%TO.C,MX67*%
X131987500Y-165937500D03*
D11*
X137067500Y-165937500D03*
D10*
X142147500Y-165937500D03*
D12*
X133257500Y-163397500D03*
X139607500Y-160857500D03*
%TD*%
D10*
%TO.C,MX29*%
X298675000Y-108787500D03*
D11*
X303755000Y-108787500D03*
D10*
X308835000Y-108787500D03*
D12*
X299945000Y-106247500D03*
X306295000Y-103707500D03*
%TD*%
D10*
%TO.C,MX87*%
X360587500Y-184987500D03*
D11*
X365667500Y-184987500D03*
D10*
X370747500Y-184987500D03*
D12*
X361857500Y-182447500D03*
X368207500Y-179907500D03*
%TD*%
D10*
%TO.C,MX5*%
X165325000Y-84975000D03*
D11*
X170405000Y-84975000D03*
D10*
X175485000Y-84975000D03*
D12*
X166595000Y-82435000D03*
X172945000Y-79895000D03*
%TD*%
D10*
%TO.C,MX15*%
X379637500Y-84975000D03*
D11*
X384717500Y-84975000D03*
D10*
X389797500Y-84975000D03*
D12*
X380907500Y-82435000D03*
X387257500Y-79895000D03*
%TD*%
D10*
%TO.C,MX86*%
X332012500Y-184987500D03*
X334393750Y-184987500D03*
D11*
X337092500Y-184987500D03*
X339473750Y-184987500D03*
D10*
X342172500Y-184987500D03*
X344553750Y-184987500D03*
D12*
X333282500Y-182447500D03*
X335663750Y-182447500D03*
X339632500Y-179907500D03*
X342013750Y-179907500D03*
%TD*%
D10*
%TO.C,MX55*%
X141512500Y-146887500D03*
D11*
X146592500Y-146887500D03*
D10*
X151672500Y-146887500D03*
D12*
X142782500Y-144347500D03*
X149132500Y-141807500D03*
%TD*%
D10*
%TO.C,MX84*%
X284387500Y-184987500D03*
X286768750Y-184987500D03*
D11*
X289467500Y-184987500D03*
X291848750Y-184987500D03*
D10*
X294547500Y-184987500D03*
X296928750Y-184987500D03*
D12*
X285657500Y-182447500D03*
X288038750Y-182447500D03*
X292007500Y-179907500D03*
X294388750Y-179907500D03*
%TD*%
D16*
%TO.C,REF\u002A\u002A*%
X265655000Y-191972499D03*
D17*
X265655000Y-176762500D03*
D16*
X151355000Y-191972499D03*
D17*
X151355000Y-176762500D03*
%TD*%
D10*
%TO.C,MX53*%
X103412500Y-146887500D03*
D11*
X108492500Y-146887500D03*
D10*
X113572500Y-146887500D03*
D12*
X104682500Y-144347500D03*
X111032500Y-141807500D03*
%TD*%
D10*
%TO.C,MX79*%
X72456250Y-184987500D03*
X74837500Y-184987500D03*
D11*
X77536250Y-184987500D03*
X79917500Y-184987500D03*
D10*
X82616250Y-184987500D03*
X84997500Y-184987500D03*
D12*
X73726250Y-182447500D03*
X76107500Y-182447500D03*
X80076250Y-179907500D03*
X82457500Y-179907500D03*
%TD*%
D10*
%TO.C,MX14*%
X360587500Y-84975000D03*
D11*
X365667500Y-84975000D03*
D10*
X370747500Y-84975000D03*
D12*
X361857500Y-82435000D03*
X368207500Y-79895000D03*
%TD*%
D10*
%TO.C,MX10*%
X279625000Y-84975000D03*
D11*
X284705000Y-84975000D03*
D10*
X289785000Y-84975000D03*
D12*
X280895000Y-82435000D03*
X287245000Y-79895000D03*
%TD*%
D10*
%TO.C,MX2*%
X108175000Y-84975000D03*
D11*
X113255000Y-84975000D03*
D10*
X118335000Y-84975000D03*
D12*
X109445000Y-82435000D03*
X115795000Y-79895000D03*
%TD*%
D10*
%TO.C,MX7*%
X212950000Y-84975000D03*
D11*
X218030000Y-84975000D03*
D10*
X223110000Y-84975000D03*
D12*
X214220000Y-82435000D03*
X220570000Y-79895000D03*
%TD*%
D10*
%TO.C,MX31*%
X327250000Y-108787500D03*
D11*
X332330000Y-108787500D03*
D10*
X336775000Y-108787500D03*
X337410000Y-108787500D03*
D11*
X341855000Y-108787500D03*
D10*
X346935000Y-108787500D03*
D12*
X328520000Y-106247500D03*
X338045000Y-106247500D03*
X334870000Y-103707500D03*
X344395000Y-103707500D03*
%TD*%
D10*
%TO.C,MX77*%
X336775000Y-165937500D03*
D11*
X341855000Y-165937500D03*
D10*
X346935000Y-165937500D03*
D12*
X338045000Y-163397500D03*
X344395000Y-160857500D03*
%TD*%
D10*
%TO.C,MX57*%
X179612500Y-146887500D03*
D11*
X184692500Y-146887500D03*
D10*
X189772500Y-146887500D03*
D12*
X180882500Y-144347500D03*
X187232500Y-141807500D03*
%TD*%
D10*
%TO.C,MX20*%
X127225000Y-108787500D03*
D11*
X132305000Y-108787500D03*
D10*
X137385000Y-108787500D03*
D12*
X128495000Y-106247500D03*
X134845000Y-103707500D03*
%TD*%
D10*
%TO.C,MX16*%
X398687500Y-84975000D03*
D11*
X403767500Y-84975000D03*
D10*
X408847500Y-84975000D03*
D12*
X399957500Y-82435000D03*
X406307500Y-79895000D03*
%TD*%
D10*
%TO.C,MX58*%
X198662500Y-146887500D03*
D11*
X203742500Y-146887500D03*
D10*
X208822500Y-146887500D03*
D12*
X199932500Y-144347500D03*
X206282500Y-141807500D03*
%TD*%
D10*
%TO.C,MX89*%
X398687500Y-184987500D03*
D11*
X403767500Y-184987500D03*
D10*
X408847500Y-184987500D03*
D12*
X399957500Y-182447500D03*
X406307500Y-179907500D03*
%TD*%
D10*
%TO.C,MX46*%
X289150000Y-127837500D03*
D11*
X294230000Y-127837500D03*
D10*
X299310000Y-127837500D03*
D12*
X290420000Y-125297500D03*
X296770000Y-122757500D03*
%TD*%
D10*
%TO.C,MX34*%
X398687500Y-108787500D03*
D11*
X403767500Y-108787500D03*
D10*
X408847500Y-108787500D03*
D12*
X399957500Y-106247500D03*
X406307500Y-103707500D03*
%TD*%
D13*
%TO.C,REF\u002A\u002A*%
X394242500Y-176987500D03*
%TD*%
D10*
%TO.C,MX40*%
X174850000Y-127837500D03*
D11*
X179930000Y-127837500D03*
D10*
X185010000Y-127837500D03*
D12*
X176120000Y-125297500D03*
X182470000Y-122757500D03*
%TD*%
D10*
%TO.C,MX59*%
X217712500Y-146887500D03*
D11*
X222792500Y-146887500D03*
D10*
X227872500Y-146887500D03*
D12*
X218982500Y-144347500D03*
X225332500Y-141807500D03*
%TD*%
D10*
%TO.C,MX19*%
X108175000Y-108787500D03*
D11*
X113255000Y-108787500D03*
D10*
X118335000Y-108787500D03*
D12*
X109445000Y-106247500D03*
X115795000Y-103707500D03*
%TD*%
D10*
%TO.C,MX28*%
X279625000Y-108787500D03*
D11*
X284705000Y-108787500D03*
D10*
X289785000Y-108787500D03*
D12*
X280895000Y-106247500D03*
X287245000Y-103707500D03*
%TD*%
D16*
%TO.C,REF\u002A\u002A*%
X313248250Y-158952500D03*
D17*
X313248250Y-174162500D03*
D16*
X337124250Y-158952500D03*
D17*
X337124250Y-174162500D03*
%TD*%
D10*
%TO.C,MX76*%
X310581250Y-165937500D03*
D11*
X315661250Y-165937500D03*
D10*
X320106250Y-165937500D03*
X320741250Y-165937500D03*
D11*
X325186250Y-165937500D03*
D10*
X330266250Y-165937500D03*
D12*
X311851250Y-163397500D03*
X327726250Y-160857500D03*
X318201250Y-160857500D03*
X321376250Y-163397500D03*
%TD*%
D10*
%TO.C,MX72*%
X227237500Y-165937500D03*
D11*
X232317500Y-165937500D03*
D10*
X237397500Y-165937500D03*
D12*
X228507500Y-163397500D03*
X234857500Y-160857500D03*
%TD*%
D10*
%TO.C,MX33*%
X379637500Y-108787500D03*
D11*
X384717500Y-108787500D03*
D10*
X389797500Y-108787500D03*
D12*
X380907500Y-106247500D03*
X387257500Y-103707500D03*
%TD*%
D16*
%TO.C,REF\u002A\u002A*%
X318010750Y-139902500D03*
D17*
X318010750Y-155112500D03*
D16*
X341886750Y-139902500D03*
D17*
X341886750Y-155112500D03*
%TD*%
D10*
%TO.C,MX32*%
X360587500Y-108787500D03*
D11*
X365667500Y-108787500D03*
D10*
X370747500Y-108787500D03*
D12*
X361857500Y-106247500D03*
X368207500Y-103707500D03*
%TD*%
D10*
%TO.C,MX49*%
X360587500Y-127837500D03*
D11*
X365667500Y-127837500D03*
D10*
X370747500Y-127837500D03*
D12*
X361857500Y-125297500D03*
X368207500Y-122757500D03*
%TD*%
D10*
%TO.C,MX88*%
X379637500Y-184987500D03*
D11*
X384717500Y-184987500D03*
D10*
X389797500Y-184987500D03*
D12*
X380907500Y-182447500D03*
X387257500Y-179907500D03*
%TD*%
D10*
%TO.C,MX4*%
X146275000Y-84975000D03*
D11*
X151355000Y-84975000D03*
D10*
X156435000Y-84975000D03*
D12*
X147545000Y-82435000D03*
X153895000Y-79895000D03*
%TD*%
D13*
%TO.C,REF\u002A\u002A*%
X89442500Y-176987500D03*
%TD*%
D10*
%TO.C,MX23*%
X184375000Y-108787500D03*
D11*
X189455000Y-108787500D03*
D10*
X194535000Y-108787500D03*
D12*
X185645000Y-106247500D03*
X191995000Y-103707500D03*
%TD*%
D10*
%TO.C,MX39*%
X155800000Y-127837500D03*
D11*
X160880000Y-127837500D03*
D10*
X165960000Y-127837500D03*
D12*
X157070000Y-125297500D03*
X163420000Y-122757500D03*
%TD*%
D10*
%TO.C,MX27*%
X260575000Y-108787500D03*
D11*
X265655000Y-108787500D03*
D10*
X270735000Y-108787500D03*
D12*
X261845000Y-106247500D03*
X268195000Y-103707500D03*
%TD*%
D10*
%TO.C,MX3*%
X127225000Y-84975000D03*
D11*
X132305000Y-84975000D03*
D10*
X137385000Y-84975000D03*
D12*
X128495000Y-82435000D03*
X134845000Y-79895000D03*
%TD*%
D16*
%TO.C,REF\u002A\u002A*%
X246598750Y-191972500D03*
D17*
X246598750Y-176762500D03*
D16*
X146598750Y-191972500D03*
D17*
X146598750Y-176762500D03*
%TD*%
D10*
%TO.C,MX66*%
X112937500Y-165937500D03*
D11*
X118017500Y-165937500D03*
D10*
X123097500Y-165937500D03*
D12*
X114207500Y-163397500D03*
X120557500Y-160857500D03*
%TD*%
D16*
%TO.C,REF\u002A\u002A*%
X75123250Y-158952500D03*
D17*
X75123250Y-174162500D03*
D16*
X98999250Y-158952500D03*
D17*
X98999250Y-174162500D03*
%TD*%
D10*
%TO.C,MX43*%
X232000000Y-127837500D03*
D11*
X237080000Y-127837500D03*
D10*
X242160000Y-127837500D03*
D12*
X233270000Y-125297500D03*
X239620000Y-122757500D03*
%TD*%
D14*
%TO.C,D93*%
X78806250Y-151967500D03*
X81028750Y-151967500D03*
D15*
X76266250Y-151967500D03*
X83568750Y-151967500D03*
%TD*%
D10*
%TO.C,MX13*%
X336775000Y-84975000D03*
D11*
X341855000Y-84975000D03*
D10*
X346935000Y-84975000D03*
D12*
X338045000Y-82435000D03*
X344395000Y-79895000D03*
%TD*%
D10*
%TO.C,MX36*%
X98650000Y-127837500D03*
D11*
X103730000Y-127837500D03*
D10*
X108810000Y-127837500D03*
D12*
X99920000Y-125297500D03*
X106270000Y-122757500D03*
%TD*%
D10*
%TO.C,MX65*%
X81981250Y-165937500D03*
D11*
X87061250Y-165937500D03*
D10*
X92141250Y-165937500D03*
D12*
X83251250Y-163397500D03*
X89601250Y-160857500D03*
%TD*%
D10*
%TO.C,MX9*%
X251050000Y-84975000D03*
D11*
X256130000Y-84975000D03*
D10*
X261210000Y-84975000D03*
D12*
X252320000Y-82435000D03*
X258670000Y-79895000D03*
%TD*%
D10*
%TO.C,MX6*%
X193900000Y-84975000D03*
D11*
X198980000Y-84975000D03*
D10*
X204060000Y-84975000D03*
D12*
X195170000Y-82435000D03*
X201520000Y-79895000D03*
%TD*%
D16*
%TO.C,REF\u002A\u002A*%
X320392000Y-101802500D03*
D17*
X320392000Y-117012500D03*
D16*
X344268000Y-101802500D03*
D17*
X344268000Y-117012500D03*
%TD*%
D10*
%TO.C,MX70*%
X189137500Y-165937500D03*
D11*
X194217500Y-165937500D03*
D10*
X199297500Y-165937500D03*
D12*
X190407500Y-163397500D03*
X196757500Y-160857500D03*
%TD*%
D10*
%TO.C,MX45*%
X270100000Y-127837500D03*
D11*
X275180000Y-127837500D03*
D10*
X280260000Y-127837500D03*
D12*
X271370000Y-125297500D03*
X277720000Y-122757500D03*
%TD*%
D10*
%TO.C,MX71*%
X208187500Y-165937500D03*
D11*
X213267500Y-165937500D03*
D10*
X218347500Y-165937500D03*
D12*
X209457500Y-163397500D03*
X215807500Y-160857500D03*
%TD*%
D10*
%TO.C,MX38*%
X136750000Y-127837500D03*
D11*
X141830000Y-127837500D03*
D10*
X146910000Y-127837500D03*
D12*
X138020000Y-125297500D03*
X144370000Y-122757500D03*
%TD*%
D10*
%TO.C,MX11*%
X298675000Y-84975000D03*
D11*
X303755000Y-84975000D03*
D10*
X308835000Y-84975000D03*
D12*
X299945000Y-82435000D03*
X306295000Y-79895000D03*
%TD*%
D10*
%TO.C,MX42*%
X212950000Y-127837500D03*
D11*
X218030000Y-127837500D03*
D10*
X223110000Y-127837500D03*
D12*
X214220000Y-125297500D03*
X220570000Y-122757500D03*
%TD*%
D10*
%TO.C,MX50*%
X379637500Y-127837500D03*
D11*
X384717500Y-127837500D03*
D10*
X389797500Y-127837500D03*
D12*
X380907500Y-125297500D03*
X387257500Y-122757500D03*
%TD*%
D10*
%TO.C,MX37*%
X117700000Y-127837500D03*
D11*
X122780000Y-127837500D03*
D10*
X127860000Y-127837500D03*
D12*
X118970000Y-125297500D03*
X125320000Y-122757500D03*
%TD*%
M02*
