%TF.GenerationSoftware,KiCad,Pcbnew,8.0.1*%
%TF.CreationDate,2025-12-30T16:32:45+09:00*%
%TF.ProjectId,rubrejaneTKL_RP2040_Piano,72756272-656a-4616-9e65-544b4c5f5250,rev?*%
%TF.SameCoordinates,Original*%
%TF.FileFunction,Profile,NP*%
%FSLAX46Y46*%
G04 Gerber Fmt 4.6, Leading zero omitted, Abs format (unit mm)*
G04 Created by KiCad (PCBNEW 8.0.1) date 2025-12-30 16:32:45*
%MOMM*%
%LPD*%
G01*
G04 APERTURE LIST*
%TA.AperFunction,Profile*%
%ADD10C,0.500000*%
%TD*%
G04 APERTURE END LIST*
D10*
X406882692Y-76549634D02*
G75*
G02*
X411632666Y-81299635I8J-4749966D01*
G01*
X273981554Y-193412865D02*
G75*
G02*
X281340862Y-193412902I3679646J-1568435D01*
G01*
X72039849Y-193412865D02*
G75*
G02*
X67289835Y-188662849I1J4750015D01*
G01*
X411632693Y-188662865D02*
G75*
G02*
X406882692Y-193412893I-4749993J-35D01*
G01*
X148642116Y-193412867D02*
X149311633Y-193412867D01*
X245001840Y-76549634D02*
X172220660Y-76549634D01*
X67289806Y-81299650D02*
X67289806Y-188662850D01*
X67289833Y-188662849D02*
X67289806Y-188662850D01*
X164301839Y-76549634D02*
X91420658Y-76549634D01*
X371281557Y-193412865D02*
G75*
G02*
X378641029Y-193412832I3679743J-1568235D01*
G01*
X91420657Y-76549634D02*
G75*
G02*
X83501841Y-76549634I-3959408J568378D01*
G01*
X72039849Y-193412865D02*
X115781552Y-193412865D01*
X148642116Y-193412867D02*
G75*
G02*
X144555317Y-193412913I-2043416J1440267D01*
G01*
X67289806Y-81299650D02*
G75*
G02*
X72023835Y-76549633I4750044J0D01*
G01*
X115781553Y-193412865D02*
G75*
G02*
X123140945Y-193412865I3679696J-1568387D01*
G01*
X153398364Y-193412866D02*
G75*
G02*
X149311634Y-193412866I-2043365J1440367D01*
G01*
X267698362Y-193412867D02*
G75*
G02*
X263611637Y-193412865I-2043362J1440367D01*
G01*
X406882692Y-76549634D02*
X398201909Y-76549634D01*
X267698362Y-193412867D02*
X273981553Y-193412865D01*
X281340945Y-193412867D02*
X371281556Y-193412865D01*
X252920661Y-76549634D02*
G75*
G02*
X245001841Y-76549634I-3959410J568384D01*
G01*
X378640949Y-193412866D02*
X406882692Y-193412865D01*
X172220660Y-76549634D02*
G75*
G02*
X164301840Y-76549634I-3959410J568384D01*
G01*
X333620657Y-76549634D02*
G75*
G02*
X325701839Y-76549634I-3959409J568378D01*
G01*
X153398365Y-193412867D02*
X244555385Y-193412865D01*
X325701837Y-76549634D02*
X252920661Y-76549634D01*
X248642113Y-193412867D02*
G75*
G02*
X244555319Y-193412912I-2043413J1440267D01*
G01*
X390283090Y-76549634D02*
X333620658Y-76549634D01*
X248642113Y-193412867D02*
X263611637Y-193412865D01*
X83501839Y-76549634D02*
X72023835Y-76549633D01*
X411632693Y-188662865D02*
X411632693Y-81299635D01*
X398201909Y-76549634D02*
G75*
G02*
X390283091Y-76549634I-3959409J568384D01*
G01*
X123140946Y-193412865D02*
X144555383Y-193412866D01*
M02*
