M48
; DRILL file {KiCad 8.0.1} date 2025-12-30T16:32:52+0900
; FORMAT={-:-/ absolute / metric / decimal}
; #@! TF.CreationDate,2025-12-30T16:32:52+09:00
; #@! TF.GenerationSoftware,Kicad,Pcbnew,8.0.1
; #@! TF.FileFunction,NonPlated,1,2,NPTH
FMAT,2
METRIC
; #@! TA.AperFunction,NonPlated,NPTH,ComponentDrill
T1C1.700
; #@! TA.AperFunction,NonPlated,NPTH,ComponentDrill
T2C3.048
; #@! TA.AperFunction,NonPlated,NPTH,ComponentDrill
T3C3.988
; #@! TA.AperFunction,NonPlated,NPTH,ComponentDrill
T4C4.000
; #@! TA.AperFunction,NonPlated,NPTH,ComponentDrill
T5C5.000
%
G90
G05
T1
X70.075Y-84.975
X70.075Y-108.787
X72.456Y-146.887
X72.456Y-184.987
X74.837Y-127.837
X74.837Y-184.987
X77.219Y-146.887
X80.235Y-84.975
X80.235Y-108.787
X81.981Y-165.938
X82.616Y-146.887
X82.616Y-184.987
X84.998Y-127.837
X84.998Y-184.987
X87.379Y-146.887
X89.125Y-108.787
X92.141Y-165.938
X96.269Y-184.987
X98.65Y-127.837
X98.65Y-184.987
X99.285Y-108.787
X103.412Y-146.887
X106.429Y-184.987
X108.175Y-84.975
X108.175Y-108.787
X108.81Y-127.837
X108.81Y-184.987
X112.938Y-165.938
X113.572Y-146.887
X117.7Y-127.837
X118.335Y-84.975
X118.335Y-108.787
X120.081Y-184.987
X122.462Y-146.887
X122.462Y-184.987
X123.097Y-165.938
X127.225Y-84.975
X127.225Y-108.787
X127.86Y-127.837
X130.241Y-184.987
X131.987Y-165.938
X132.623Y-146.887
X132.623Y-184.987
X136.75Y-127.837
X137.385Y-84.975
X137.385Y-108.787
X141.512Y-146.887
X142.147Y-165.938
X146.275Y-84.975
X146.275Y-108.787
X146.91Y-127.837
X151.037Y-165.938
X151.672Y-146.887
X155.8Y-127.837
X156.435Y-84.975
X156.435Y-108.787
X160.562Y-146.887
X161.197Y-165.938
X165.325Y-84.975
X165.325Y-108.787
X165.96Y-127.837
X170.088Y-165.938
X170.722Y-146.887
X174.85Y-127.837
X175.485Y-84.975
X175.485Y-108.787
X179.612Y-146.887
X180.248Y-165.938
X184.375Y-108.787
X185.01Y-127.837
X189.137Y-165.938
X189.772Y-146.887
X191.519Y-184.987
X193.9Y-84.975
X193.9Y-127.837
X194.535Y-108.787
X198.662Y-146.887
X199.297Y-165.938
X201.679Y-184.987
X203.425Y-108.787
X203.425Y-184.987
X204.06Y-84.975
X204.06Y-127.837
X208.188Y-165.938
X208.822Y-146.887
X212.95Y-84.975
X212.95Y-127.837
X213.585Y-108.787
X213.585Y-184.987
X217.712Y-146.887
X218.347Y-165.938
X222.475Y-108.787
X223.11Y-84.975
X223.11Y-127.837
X227.237Y-165.938
X227.873Y-146.887
X232.0Y-84.975
X232.0Y-127.837
X232.635Y-108.787
X236.762Y-146.887
X237.397Y-165.938
X241.525Y-108.787
X242.16Y-84.975
X242.16Y-127.837
X246.287Y-165.938
X246.922Y-146.887
X251.05Y-84.975
X251.05Y-127.837
X251.685Y-108.787
X255.812Y-146.887
X256.447Y-165.938
X260.575Y-108.787
X261.21Y-84.975
X261.21Y-127.837
X262.956Y-184.987
X265.337Y-165.938
X265.972Y-146.887
X270.1Y-127.837
X270.735Y-108.787
X273.116Y-184.987
X274.863Y-146.887
X275.498Y-165.938
X279.625Y-84.975
X279.625Y-108.787
X280.26Y-127.837
X284.387Y-165.938
X284.387Y-184.987
X285.022Y-146.887
X286.769Y-184.987
X289.15Y-127.837
X289.785Y-84.975
X289.785Y-108.787
X293.912Y-146.887
X294.548Y-165.938
X294.548Y-184.987
X296.929Y-184.987
X298.675Y-84.975
X298.675Y-108.787
X299.31Y-127.837
X304.072Y-146.887
X308.2Y-127.837
X308.2Y-184.987
X308.835Y-84.975
X308.835Y-108.787
X310.581Y-165.938
X310.581Y-184.987
X317.725Y-84.975
X317.725Y-108.787
X318.36Y-127.837
X318.36Y-184.987
X320.106Y-165.938
X320.741Y-165.938
X320.741Y-184.987
X324.869Y-146.887
X327.25Y-108.787
X327.885Y-84.975
X327.885Y-108.787
X330.266Y-165.938
X332.012Y-127.837
X332.012Y-184.987
X334.394Y-184.987
X335.029Y-146.887
X336.775Y-84.975
X336.775Y-108.787
X336.775Y-165.938
X337.41Y-108.787
X342.172Y-127.837
X342.172Y-184.987
X344.554Y-184.987
X346.935Y-84.975
X346.935Y-108.787
X346.935Y-165.938
X360.587Y-84.975
X360.587Y-108.787
X360.587Y-127.837
X360.587Y-184.987
X370.748Y-84.975
X370.748Y-108.787
X370.748Y-127.837
X370.748Y-184.987
X379.637Y-84.975
X379.637Y-108.787
X379.637Y-127.837
X379.637Y-165.938
X379.637Y-184.987
X389.797Y-84.975
X389.797Y-108.787
X389.797Y-127.837
X389.797Y-165.938
X389.797Y-184.987
X398.688Y-84.975
X398.688Y-108.787
X398.688Y-127.837
X398.688Y-184.987
X408.847Y-84.975
X408.847Y-108.787
X408.847Y-127.837
X408.847Y-184.987
T2
X75.123Y-158.952
X98.999Y-158.952
X146.599Y-191.972
X151.355Y-191.972
X246.599Y-191.972
X265.655Y-191.972
X313.248Y-158.952
X318.011Y-139.903
X320.392Y-101.802
X337.124Y-158.952
X341.887Y-139.903
X344.268Y-101.802
T3
X75.123Y-174.162
X98.999Y-174.162
X146.599Y-176.762
X151.355Y-176.762
X246.599Y-176.762
X265.655Y-176.762
X313.248Y-174.162
X318.011Y-155.112
X320.392Y-117.012
X337.124Y-174.162
X341.887Y-155.112
X344.268Y-117.012
T4
X75.155Y-84.975
X75.155Y-108.787
X77.536Y-146.887
X77.536Y-184.987
X79.917Y-127.837
X79.917Y-184.987
X82.299Y-146.887
X87.061Y-165.938
X94.205Y-108.787
X101.349Y-184.987
X103.73Y-127.837
X103.73Y-184.987
X108.492Y-146.887
X113.255Y-84.975
X113.255Y-108.787
X118.017Y-165.938
X122.78Y-127.837
X125.161Y-184.987
X127.542Y-146.887
X127.542Y-184.987
X132.305Y-84.975
X132.305Y-108.787
X137.067Y-165.938
X141.83Y-127.837
X146.593Y-146.887
X151.355Y-84.975
X151.355Y-108.787
X156.118Y-165.938
X160.88Y-127.837
X165.642Y-146.887
X170.405Y-84.975
X170.405Y-108.787
X175.167Y-165.938
X179.93Y-127.837
X184.692Y-146.887
X189.455Y-108.787
X194.218Y-165.938
X196.599Y-184.987
X198.98Y-84.975
X198.98Y-127.837
X203.742Y-146.887
X208.505Y-108.787
X208.505Y-184.987
X213.267Y-165.938
X218.03Y-84.975
X218.03Y-127.837
X222.792Y-146.887
X227.555Y-108.787
X232.317Y-165.938
X237.08Y-84.975
X237.08Y-127.837
X241.843Y-146.887
X246.605Y-108.787
X251.367Y-165.938
X256.13Y-84.975
X256.13Y-127.837
X260.892Y-146.887
X265.655Y-108.787
X268.036Y-184.987
X270.417Y-165.938
X275.18Y-127.837
X279.942Y-146.887
X284.705Y-84.975
X284.705Y-108.787
X289.467Y-165.938
X289.467Y-184.987
X291.849Y-184.987
X294.23Y-127.837
X298.993Y-146.887
X303.755Y-84.975
X303.755Y-108.787
X313.28Y-127.837
X313.28Y-184.987
X315.661Y-165.938
X315.661Y-184.987
X322.805Y-84.975
X322.805Y-108.787
X325.186Y-165.938
X329.949Y-146.887
X332.33Y-108.787
X337.092Y-127.837
X337.092Y-184.987
X339.474Y-184.987
X341.855Y-84.975
X341.855Y-108.787
X341.855Y-165.938
X365.667Y-84.975
X365.667Y-108.787
X365.667Y-127.837
X365.667Y-184.987
X384.717Y-84.975
X384.717Y-108.787
X384.717Y-127.837
X384.717Y-165.938
X384.717Y-184.987
X403.767Y-84.975
X403.767Y-108.787
X403.767Y-127.837
X403.767Y-184.987
T5
X89.442Y-176.987
X184.692Y-173.938
X279.942Y-173.938
X394.243Y-176.987
M30
